<?xml version="1.0" encoding="utf-8"?>
<!-- Generator: Adobe Illustrator 19.2.1, SVG Export Plug-In . SVG Version: 6.00 Build 0)  -->
<svg version="1.1" id="Layer_1" xmlns="http://www.w3.org/2000/svg" xmlns:xlink="http://www.w3.org/1999/xlink" x="0px" y="0px"
	 viewBox="0 0 115.9 115.9" style="enable-background:new 0 0 115.9 115.9;" xml:space="preserve">
<style type="text/css">
	.st0{fill:#FFFFFF;}
</style>
<g>
	<path class="st0" d="M58,114.1C27,114.1,1.9,88.9,1.9,58C1.9,27,27,1.9,58,1.9c30.9,0,56.1,25.2,56.1,56.1
		C114.1,88.9,88.9,114.1,58,114.1z M58,9.2C31.1,9.2,9.2,31.1,9.2,58c0,26.9,21.9,48.8,48.8,48.8c26.9,0,48.8-21.9,48.8-48.8
		C106.8,31.1,84.9,9.2,58,9.2z"/>
</g>
<g>
	<path class="st0" d="M93.5,58.8c0,0.5,0,0.9-0.1,1.4c-0.2,3.5-0.8,7-1.8,10.4c-1.5,5-3.9,9.6-7.2,13.8c-0.5,0.6-1,1.1-1.8,1.2
		c-1.1,0.1-1.9-0.3-2.5-1.2c-0.5-0.8-0.5-2,0-2.8c0.6-0.8,1.2-1.6,1.8-2.5c2.6-3.9,4.5-8.2,5.5-12.8c0.8-3.5,1.1-7,0.8-10.5
		c-0.4-6.5-2.3-12.4-5.8-17.9c-0.7-1.1-1.5-2.2-2.3-3.2c-1-1.3-0.7-3.1,0.7-3.9c1.1-0.6,2.5-0.4,3.3,0.7c0.7,1,1.5,1.9,2.2,3
		c2.8,4.2,4.8,8.8,6,13.7c0.5,2.2,0.9,4.4,1,6.6c0.1,0.8,0.1,1.5,0.1,2.3c0,0.1,0,0.3,0,0.4C93.5,57.9,93.5,58.3,93.5,58.8z"/>
	<path class="st0" d="M61.9,58c0,8.3,0,16.7,0,25c0,0.9-0.3,1.6-1,2.2c-0.9,0.7-2.2,0.7-3.1,0c-0.7-0.5-1.3-1.1-2-1.7
		c-5-4.3-10-8.6-15-13c-0.2-0.2-0.4-0.3-0.7-0.3c-5,0-9.9,0-14.9,0c-1,0-1.8-0.4-2.3-1.2c-0.3-0.5-0.4-1-0.4-1.5
		c0-5.3,0-10.6,0-15.9c0-1.2,0-2.3,0-3.5c0-1.2,0.7-2.2,1.8-2.5c0.3-0.1,0.6-0.1,0.9-0.1c5.1,0,10.2,0,15.3,0c0.2,0,0.3-0.1,0.5-0.2
		c5.1-4.4,10.2-8.8,15.2-13.2c0.5-0.4,1-0.9,1.6-1.3c0.8-0.6,1.7-0.7,2.7-0.3c0.9,0.4,1.4,1.2,1.4,2.2c0,0.1,0,0.2,0,0.3
		C61.9,41.3,61.9,49.7,61.9,58z"/>
	<path class="st0" d="M84,58c-0.1,7.3-2.2,13.8-6.4,19.7c-0.6,0.9-1.5,1.2-2.6,1c-1.1-0.2-1.7-0.9-2-1.9c-0.2-0.7-0.1-1.4,0.4-2.1
		c0.8-1.1,1.5-2.1,2.1-3.3c1.4-2.6,2.4-5.3,2.9-8.1c0.4-2.3,0.6-4.7,0.5-7c-0.3-4.6-1.6-8.9-4-12.9c-0.5-0.8-1-1.5-1.5-2.3
		c-0.8-1.1-0.5-2.7,0.7-3.5c1.1-0.8,2.6-0.6,3.4,0.5c1,1.2,1.8,2.5,2.5,3.9c1.6,2.9,2.8,6,3.4,9.3c0.3,1.7,0.6,3.4,0.6,5.1
		C84,57,84,57.5,84,58z"/>
	<path class="st0" d="M74,57.8c0,4.6-1.2,8.6-3.4,12.3c-0.4,0.6-0.9,1.1-1.6,1.3c-1,0.3-2,0-2.7-0.8c-0.6-0.8-0.8-1.9-0.3-2.8
		c0.5-0.9,1-1.7,1.4-2.7c0.8-1.7,1.2-3.5,1.4-5.4c0.4-4.1-0.5-7.9-2.7-11.4c-0.7-1.1-0.6-2.4,0.3-3.3c1.2-1.2,3.1-1,4,0.5
		c0.8,1.2,1.4,2.5,2,3.8c0.9,2.2,1.4,4.4,1.6,6.7C74,56.8,74,57.5,74,57.8z"/>
</g>
</svg>
