<?xml version="1.0" encoding="utf-8"?>
<!-- Generator: Adobe Illustrator 19.2.1, SVG Export Plug-In . SVG Version: 6.00 Build 0)  -->
<svg version="1.1" id="Layer_1" xmlns="http://www.w3.org/2000/svg" xmlns:xlink="http://www.w3.org/1999/xlink" x="0px" y="0px"
	 viewBox="0 0 1920 1082" style="enable-background:new 0 0 1920 1082;" xml:space="preserve">
<style type="text/css">
	.st0{fill:url(#SVGID_1_);}
	.st1{fill:#484848;}
	.st2{fill:#919B94;stroke:#919B94;stroke-width:9.3752;stroke-miterlimit:10;}
	.st3{fill:none;stroke:#FFF88B;stroke-width:2.368;stroke-linecap:round;stroke-miterlimit:10;stroke-dasharray:0,5.9122;}
	.st4{fill:#616972;}
	.st5{opacity:0.34;}
	.st6{opacity:0.3;}
	.st7{fill:#FFFFFF;}
	.st8{fill:#FFE05F;}
	.st9{fill:#323232;}
	.st10{fill:#CB414A;}
	.st11{opacity:0.59;fill:#323232;enable-background:new    ;}
	.st12{fill:#FBB040;}
	.st13{opacity:0.59;fill:#CB414A;enable-background:new    ;}
	.st14{fill:none;}
	.st15{opacity:0.4;fill:#FFFFFF;enable-background:new    ;}
	.st16{fill:#307797;}
	.st17{opacity:0.8;fill:#FFFFFF;enable-background:new    ;}
	.st18{fill:#7C7C78;}
	.st19{fill:#EEF3EF;stroke:#919B94;stroke-width:3;stroke-linecap:round;stroke-miterlimit:10;}
</style>
<linearGradient id="SVGID_1_" gradientUnits="userSpaceOnUse" x1="960" y1="607.6015" x2="960" y2="1105.1635">
	<stop  offset="0.2893" style="stop-color:#307797"/>
	<stop  offset="0.3744" style="stop-color:#387D9B"/>
	<stop  offset="0.5057" style="stop-color:#4E8CA5"/>
	<stop  offset="0.6668" style="stop-color:#71A5B6"/>
	<stop  offset="0.8498" style="stop-color:#A2C8CE"/>
	<stop  offset="1" style="stop-color:#CFE8E4"/>
</linearGradient>
<rect y="0" class="st0" width="1920" height="1082.1"/>
<g>
	<rect x="370" y="736.7" class="st1" width="4.2" height="50.6"/>
	<rect x="202.2" y="736.7" class="st1" width="4.2" height="50.6"/>
	<path class="st2" d="M397.7,688.1H174.9c-7.4,0-13.5,6-13.5,13.5v21.6c0,7.4,6,13.5,13.5,13.5h222.8c7.4,0,13.5-6,13.5-13.5v-21.6
		C411.2,694.2,405.1,688.1,397.7,688.1z"/>
	<g>
		<path class="st3" d="M398.9,688H173.7c-7.5,0-13.6,6.1-13.6,13.6v21.8c0,7.5,6.1,13.6,13.6,13.6h225.1c7.5,0,13.6-6.1,13.6-13.6
			v-21.8C412.5,694.1,406.4,688,398.9,688z"/>
	</g>
	<path class="st4" d="M399.3,733.7h-226c-4.9,0-9-4.1-9-9V700c0-5,4.1-9,9-9h225.9c4.9,0,9,4,9,9v24.7
		C408.3,729.7,404.2,733.7,399.3,733.7z"/>
</g>
<g>
	<g class="st5">
		<rect x="270.8" y="795.2" class="st1" width="94.2" height="286.8"/>
		<g class="st6">
			<g>
				<g>
					<rect x="281.4" y="807.1" class="st7" width="30.6" height="8.6"/>
					<rect x="323.9" y="807.1" class="st7" width="30.6" height="8.6"/>
				</g>
				<g>
					<rect x="281.4" y="823.3" class="st7" width="30.6" height="8.6"/>
					<rect x="323.9" y="823.3" class="st7" width="30.6" height="8.6"/>
				</g>
				<g>
					<rect x="281.4" y="839.4" class="st7" width="30.6" height="8.6"/>
					<rect x="323.9" y="839.4" class="st7" width="30.6" height="8.6"/>
				</g>
				<g>
					<rect x="281.4" y="855.6" class="st7" width="30.6" height="8.6"/>
					<rect x="323.9" y="855.6" class="st7" width="30.6" height="8.6"/>
				</g>
				<g>
					<rect x="281.4" y="871.7" class="st7" width="30.6" height="8.6"/>
					<rect x="323.9" y="871.7" class="st7" width="30.6" height="8.6"/>
				</g>
				<g>
					<rect x="281.4" y="887.9" class="st7" width="30.6" height="8.6"/>
					<rect x="323.9" y="887.9" class="st7" width="30.6" height="8.6"/>
				</g>
				<g>
					<rect x="281.4" y="904" class="st7" width="30.6" height="8.6"/>
					<rect x="323.9" y="904" class="st7" width="30.6" height="8.6"/>
				</g>
				<g>
					<rect x="281.4" y="920.2" class="st7" width="30.6" height="8.6"/>
					<rect x="323.9" y="920.2" class="st7" width="30.6" height="8.6"/>
				</g>
				<g>
					<rect x="281.4" y="936.3" class="st7" width="30.6" height="8.6"/>
					<rect x="323.9" y="936.3" class="st7" width="30.6" height="8.6"/>
				</g>
			</g>
			<g>
				<g>
					<rect x="281.4" y="952.1" class="st7" width="30.6" height="8.6"/>
					<rect x="323.9" y="952.1" class="st7" width="30.6" height="8.6"/>
				</g>
				<g>
					<rect x="281.4" y="968.3" class="st7" width="30.6" height="8.6"/>
					<rect x="323.9" y="968.3" class="st7" width="30.6" height="8.6"/>
				</g>
				<g>
					<rect x="281.4" y="984.4" class="st7" width="30.6" height="8.6"/>
					<rect x="323.9" y="984.4" class="st7" width="30.6" height="8.6"/>
				</g>
				<g>
					<rect x="281.4" y="1000.6" class="st7" width="30.6" height="8.6"/>
					<rect x="323.9" y="1000.6" class="st7" width="30.6" height="8.6"/>
				</g>
			</g>
		</g>
	</g>
	<g class="st5">
		<rect x="368.3" y="808.7" class="st1" width="94.2" height="273.7"/>
		<g class="st6">
			<g>
				<g>
					<rect x="378.9" y="820" class="st7" width="30.6" height="8.2"/>
					<rect x="421.4" y="820" class="st7" width="30.6" height="8.2"/>
				</g>
				<g>
					<rect x="378.9" y="835.4" class="st7" width="30.6" height="8.2"/>
					<rect x="421.4" y="835.4" class="st7" width="30.6" height="8.2"/>
				</g>
				<g>
					<rect x="378.9" y="850.8" class="st7" width="30.6" height="8.2"/>
					<rect x="421.4" y="850.8" class="st7" width="30.6" height="8.2"/>
				</g>
				<g>
					<rect x="378.9" y="866.2" class="st7" width="30.6" height="8.2"/>
					<rect x="421.4" y="866.2" class="st7" width="30.6" height="8.2"/>
				</g>
				<g>
					<rect x="378.9" y="881.6" class="st7" width="30.6" height="8.2"/>
					<rect x="421.4" y="881.6" class="st7" width="30.6" height="8.2"/>
				</g>
				<g>
					<rect x="378.9" y="897.1" class="st7" width="30.6" height="8.2"/>
					<rect x="421.4" y="897.1" class="st7" width="30.6" height="8.2"/>
				</g>
				<g>
					<rect x="378.9" y="912.5" class="st7" width="30.6" height="8.2"/>
					<rect x="421.4" y="912.5" class="st7" width="30.6" height="8.2"/>
				</g>
				<g>
					<rect x="378.9" y="927.9" class="st7" width="30.6" height="8.2"/>
					<rect x="421.4" y="927.9" class="st7" width="30.6" height="8.2"/>
				</g>
				<g>
					<rect x="378.9" y="943.3" class="st7" width="30.6" height="8.2"/>
					<rect x="421.4" y="943.3" class="st7" width="30.6" height="8.2"/>
				</g>
			</g>
			<g>
				<g>
					<rect x="378.9" y="958.3" class="st7" width="30.6" height="8.2"/>
					<rect x="421.4" y="958.3" class="st7" width="30.6" height="8.2"/>
				</g>
				<g>
					<rect x="378.9" y="973.8" class="st7" width="30.6" height="8.2"/>
					<rect x="421.4" y="973.8" class="st7" width="30.6" height="8.2"/>
				</g>
				<g>
					<rect x="378.9" y="989.2" class="st7" width="30.6" height="8.2"/>
					<rect x="421.4" y="989.2" class="st7" width="30.6" height="8.2"/>
				</g>
				<g>
					<rect x="378.9" y="1004.6" class="st7" width="30.6" height="8.2"/>
					<rect x="421.4" y="1004.6" class="st7" width="30.6" height="8.2"/>
				</g>
			</g>
		</g>
	</g>
	<g class="st5">
		<rect x="75.7" y="887.4" class="st1" width="94.2" height="194.6"/>
		<g class="st6">
			<g>
				<g>
					<rect x="86.3" y="895.5" class="st7" width="30.6" height="5.8"/>
					<rect x="128.8" y="895.5" class="st7" width="30.6" height="5.8"/>
				</g>
				<g>
					<rect x="86.3" y="906.4" class="st7" width="30.6" height="5.8"/>
					<rect x="128.8" y="906.4" class="st7" width="30.6" height="5.8"/>
				</g>
				<g>
					<rect x="86.3" y="917.4" class="st7" width="30.6" height="5.8"/>
					<rect x="128.8" y="917.4" class="st7" width="30.6" height="5.8"/>
				</g>
				<g>
					<rect x="86.3" y="928.4" class="st7" width="30.6" height="5.8"/>
					<rect x="128.8" y="928.4" class="st7" width="30.6" height="5.8"/>
				</g>
				<g>
					<rect x="86.3" y="939.3" class="st7" width="30.6" height="5.8"/>
					<rect x="128.8" y="939.3" class="st7" width="30.6" height="5.8"/>
				</g>
				<g>
					<rect x="86.3" y="950.3" class="st7" width="30.6" height="5.8"/>
					<rect x="128.8" y="950.3" class="st7" width="30.6" height="5.8"/>
				</g>
				<g>
					<rect x="86.3" y="961.3" class="st7" width="30.6" height="5.8"/>
					<rect x="128.8" y="961.3" class="st7" width="30.6" height="5.8"/>
				</g>
				<g>
					<rect x="86.3" y="972.2" class="st7" width="30.6" height="5.8"/>
					<rect x="128.8" y="972.2" class="st7" width="30.6" height="5.8"/>
				</g>
				<g>
					<rect x="86.3" y="983.2" class="st7" width="30.6" height="5.8"/>
					<rect x="128.8" y="983.2" class="st7" width="30.6" height="5.8"/>
				</g>
			</g>
			<g>
				<g>
					<rect x="86.3" y="993.9" class="st7" width="30.6" height="5.8"/>
					<rect x="128.8" y="993.9" class="st7" width="30.6" height="5.8"/>
				</g>
				<g>
					<rect x="86.3" y="1004.8" class="st7" width="30.6" height="5.8"/>
					<rect x="128.8" y="1004.8" class="st7" width="30.6" height="5.8"/>
				</g>
				<g>
					<rect x="86.3" y="1015.8" class="st7" width="30.6" height="5.8"/>
					<rect x="128.8" y="1015.8" class="st7" width="30.6" height="5.8"/>
				</g>
				<g>
					<rect x="86.3" y="1026.7" class="st7" width="30.6" height="5.8"/>
					<rect x="128.8" y="1026.7" class="st7" width="30.6" height="5.8"/>
				</g>
			</g>
		</g>
	</g>
	<g class="st5">
		<rect x="110.1" y="754.9" class="st1" width="94.2" height="327.5"/>
		<g class="st6">
			<g>
				<g>
					<rect x="120.7" y="768.4" class="st7" width="30.6" height="9.8"/>
					<rect x="163.2" y="768.4" class="st7" width="30.6" height="9.8"/>
				</g>
				<g>
					<rect x="120.7" y="786.9" class="st7" width="30.6" height="9.8"/>
					<rect x="163.2" y="786.9" class="st7" width="30.6" height="9.8"/>
				</g>
				<g>
					<rect x="120.7" y="805.3" class="st7" width="30.6" height="9.8"/>
					<rect x="163.2" y="805.3" class="st7" width="30.6" height="9.8"/>
				</g>
				<g>
					<rect x="120.7" y="823.8" class="st7" width="30.6" height="9.8"/>
					<rect x="163.2" y="823.8" class="st7" width="30.6" height="9.8"/>
				</g>
				<g>
					<rect x="120.7" y="842.2" class="st7" width="30.6" height="9.8"/>
					<rect x="163.2" y="842.2" class="st7" width="30.6" height="9.8"/>
				</g>
				<g>
					<rect x="120.7" y="860.6" class="st7" width="30.6" height="9.8"/>
					<rect x="163.2" y="860.6" class="st7" width="30.6" height="9.8"/>
				</g>
				<g>
					<rect x="120.7" y="879.1" class="st7" width="30.6" height="9.8"/>
					<rect x="163.2" y="879.1" class="st7" width="30.6" height="9.8"/>
				</g>
				<g>
					<rect x="120.7" y="897.5" class="st7" width="30.6" height="9.8"/>
					<rect x="163.2" y="897.5" class="st7" width="30.6" height="9.8"/>
				</g>
				<g>
					<rect x="120.7" y="916" class="st7" width="30.6" height="9.8"/>
					<rect x="163.2" y="916" class="st7" width="30.6" height="9.8"/>
				</g>
			</g>
			<g>
				<g>
					<rect x="120.7" y="934" class="st7" width="30.6" height="9.8"/>
					<rect x="163.2" y="934" class="st7" width="30.6" height="9.8"/>
				</g>
				<g>
					<rect x="120.7" y="952.4" class="st7" width="30.6" height="9.8"/>
					<rect x="163.2" y="952.4" class="st7" width="30.6" height="9.8"/>
				</g>
				<g>
					<rect x="120.7" y="970.9" class="st7" width="30.6" height="9.8"/>
					<rect x="163.2" y="970.9" class="st7" width="30.6" height="9.8"/>
				</g>
				<g>
					<rect x="120.7" y="989.3" class="st7" width="30.6" height="9.8"/>
					<rect x="163.2" y="989.3" class="st7" width="30.6" height="9.8"/>
				</g>
			</g>
		</g>
	</g>
	<g class="st5">
		<rect x="-21.9" y="707.2" class="st1" width="94.2" height="374.8"/>
		<g class="st6">
			<g>
				<g>
					<rect x="-11.3" y="722.7" class="st7" width="30.6" height="11.2"/>
					<rect x="31.2" y="722.7" class="st7" width="30.6" height="11.2"/>
				</g>
				<g>
					<rect x="-11.3" y="743.9" class="st7" width="30.6" height="11.2"/>
					<rect x="31.2" y="743.9" class="st7" width="30.6" height="11.2"/>
				</g>
				<g>
					<rect x="-11.3" y="765" class="st7" width="30.6" height="11.2"/>
					<rect x="31.2" y="765" class="st7" width="30.6" height="11.2"/>
				</g>
				<g>
					<rect x="-11.3" y="786.1" class="st7" width="30.6" height="11.2"/>
					<rect x="31.2" y="786.1" class="st7" width="30.6" height="11.2"/>
				</g>
				<g>
					<rect x="-11.3" y="807.2" class="st7" width="30.6" height="11.2"/>
					<rect x="31.2" y="807.2" class="st7" width="30.6" height="11.2"/>
				</g>
				<g>
					<rect x="-11.3" y="828.3" class="st7" width="30.6" height="11.2"/>
					<rect x="31.2" y="828.3" class="st7" width="30.6" height="11.2"/>
				</g>
				<g>
					<rect x="-11.3" y="849.4" class="st7" width="30.6" height="11.2"/>
					<rect x="31.2" y="849.4" class="st7" width="30.6" height="11.2"/>
				</g>
				<g>
					<rect x="-11.3" y="870.5" class="st7" width="30.6" height="11.2"/>
					<rect x="31.2" y="870.5" class="st7" width="30.6" height="11.2"/>
				</g>
				<g>
					<rect x="-11.3" y="891.6" class="st7" width="30.6" height="11.2"/>
					<rect x="31.2" y="891.6" class="st7" width="30.6" height="11.2"/>
				</g>
			</g>
			<g>
				<g>
					<rect x="-11.3" y="912.2" class="st7" width="30.6" height="11.2"/>
					<rect x="31.2" y="912.2" class="st7" width="30.6" height="11.2"/>
				</g>
				<g>
					<rect x="-11.3" y="933.3" class="st7" width="30.6" height="11.2"/>
					<rect x="31.2" y="933.3" class="st7" width="30.6" height="11.2"/>
				</g>
				<g>
					<rect x="-11.3" y="954.4" class="st7" width="30.6" height="11.2"/>
					<rect x="31.2" y="954.4" class="st7" width="30.6" height="11.2"/>
				</g>
				<g>
					<rect x="-11.3" y="975.6" class="st7" width="30.6" height="11.2"/>
					<rect x="31.2" y="975.6" class="st7" width="30.6" height="11.2"/>
				</g>
			</g>
		</g>
	</g>
</g>
<g>
	<path class="st8" d="M286.9,801.8c-0.2-0.2-0.5-0.3-0.8-0.5c0,0,0,0-0.1,0l0,0c-3.7-2.3-8.2-3.3-12.8-2.5
		c-9.7,1.8-15.9,11.1-14.2,20.8c0.9,5.1,6.3,9.8,11.8,13.5c25,16.9,47.5,38.4,66.1,64.4c27,37.7,44.1,141.4,48.9,184.5H421
		c-5-50.1-24.2-161-55.7-204.9C343.4,846.5,316.6,821.3,286.9,801.8z"/>
	
		<ellipse transform="matrix(0.9698 -0.2437 0.2437 0.9698 -188.5026 92.5027)" class="st9" cx="279.6" cy="808.1" rx="1.5" ry="1.5"/>
	<ellipse transform="matrix(0.9698 -0.2438 0.2438 0.9698 -192.2818 90.4356)" class="st9" cx="269.2" cy="822" rx="1.5" ry="1.5"/>
</g>
<path class="st10" d="M118.5,754.9c3-6,5.5-12.6,3.8-17.6c-3.2-9.3-13.1-14.4-22.5-11.4c-4.5,1.5-7.9,4.5-10,8.4l0,0c0,0,0,0,0,0.1
	c-0.1,0.3-0.3,0.5-0.4,0.8c-16.6,31.5-27.8,66.5-32.2,104c-0.1,1.1-0.3,2.3-0.4,3.4H92C95.7,811.1,104.9,781.6,118.5,754.9z"/>
<polygon class="st11" points="94,766.9 93,748.8 109.2,757 "/>
<ellipse transform="matrix(0.9499 -0.3125 0.3125 0.9499 -225.6836 67.581)" class="st9" cx="98" cy="737.9" rx="1.5" ry="1.5"/>
<ellipse transform="matrix(0.9499 -0.3125 0.3125 0.9499 -227.8605 72.6096)" class="st9" cx="112.6" cy="747.2" rx="1.5" ry="1.5"/>
<path class="st12" d="M480,779.2c-4.4-1.6-9-1.4-13.1,0.3l0,0c0,0,0,0-0.1,0c-0.3,0.1-0.6,0.2-0.8,0.4
	c-32.6,14.4-63.1,34.9-89.8,61.5c-66,65.8-94.6,154.9-85.8,240.9h35.2c-9-77,16.1-157.2,75.3-216.2c22.6-22.6,48.3-40.1,75.7-52.7
	c6.1-2.8,12.1-6.5,13.9-11.4C493.8,792.8,489.2,782.6,480,779.2z"/>
<polygon class="st13" points="481.2,930.5 515.5,890.8 532.7,940.3 "/>
<polygon class="st13" points="807.9,911.7 822.1,909.6 830.9,920.8 825.7,934.1 811.5,936.2 802.6,925 "/>
<polygon class="st13" points="786.4,897.6 809.3,898.6 819.9,919 807.5,938.3 784.6,937.3 774,916.9 "/>
<circle class="st13" cx="947.4" cy="926.6" r="17.3"/>
<circle class="st13" cx="967.8" cy="926.6" r="13.1"/>
<g>
	<g>
		<circle class="st9" cx="576.7" cy="970.1" r="11.9"/>
		<path class="st14" d="M496.8,957.8h8.4c-1.3-0.4-2.7-0.7-4.2-0.7S498.2,957.3,496.8,957.8z"/>
		<path class="st14" d="M572.3,957.8h8.4c-1.3-0.4-2.7-0.7-4.2-0.7S573.6,957.3,572.3,957.8z"/>
		<path class="st9" d="M536.9,954.2v-18c0-0.4,0-0.9-0.1-1.3c1.9-0.4,3.3-2.4,3.3-4c0-2.5-1.7-4.3-3.9-4.3h-54.6
			c-2.2,0-3.9,1.7-3.9,4.2c0,2,1.6,4.1,4.6,4.1c0,1-0.1,0.8-0.1,1.2v18c0,1.3,0.2,2.5,0.6,3.6h14.1c1.3-0.6,2.7-1,4.2-1
			s2.9,0.3,4.2,1h31C536.7,956.7,536.9,955.5,536.9,954.2z"/>
		<circle class="st9" cx="501" cy="970.1" r="11.9"/>
		<circle class="st7" cx="501" cy="970.1" r="5.9"/>
		<circle class="st7" cx="576.7" cy="970.1" r="5.9"/>
		<path class="st15" d="M546.7,948.4h30.2l-0.5-0.1l-4.6-13.7l0,0c0-0.2,0-0.4-0.1-0.5h-25L546.7,948.4L546.7,948.4z"/>
		<rect x="563" y="933.1" class="st16" width="3.6" height="15.3"/>
		<path class="st17" d="M549,947.2L549,947.2c-0.5,0-0.9-0.4-0.9-0.9v-8c0-0.5,0.4-0.9,0.9-0.9l0,0c0.5,0,0.9,0.4,0.9,0.9v8
			C549.9,946.8,549.5,947.2,549,947.2z"/>
		<path class="st16" d="M479.3,957.8c-1.6,0-3,1.3-3,3v3.6c0,0,0,0,0,0.1c0.1,3.1,1.5,5.7,3.6,5.7h8.1c0-5.7,3.7-10.6,8.9-12.4
			h-14.1L479.3,957.8L479.3,957.8z"/>
		<path class="st16" d="M536.3,957.8h-31c5.1,1.8,8.9,6.6,8.9,12.4h29v-12.4H536.3z"/>
		<path class="st16" d="M594,952.4l-17.1-3.9h-30.2v-14.3h28.7c0.6-0.1,1-0.6,1-1.2v-1.2c0-0.7-0.6-1.3-1.3-1.3h-30.8
			c-0.7,0-1.3,0.6-1.3,1.3v2.9v4.2v18.9v12.4h20.3c0-5.7,3.7-10.6,8.9-12.4c1.3-0.4,2.7-0.7,4.2-0.7s2.9,0.3,4.2,0.7
			c5.1,1.8,8.9,6.6,8.9,12.4h2.6c0.8,0,4.9-1.6,4.9-5.8v-6.6v-2.4C597,953.7,595.7,952.4,594,952.4z"/>
		<path class="st18" d="M487.1,971.1h-0.9v-1h-2.8v1h-6.1c-0.6,0-1,0.5-1,1v0.9c0,0.6,0.4,1,1,1h9.8c0.6,0,1-0.4,1-1v-0.9
			C488.1,971.5,487.7,971.1,487.1,971.1z"/>
	</g>
	<path class="st17" d="M484.9,951.2L484.9,951.2c-0.5,0-0.9-0.4-0.9-0.9V937c0-0.5,0.4-0.9,0.9-0.9l0,0c0.5,0,0.9,0.4,0.9,0.9v13.3
		C485.8,950.8,485.4,951.2,484.9,951.2z"/>
	<path class="st17" d="M484.9,955.2L484.9,955.2c-0.5,0-0.9-0.4-0.9-0.9v-0.8c0-0.5,0.4-0.9,0.9-0.9l0,0c0.5,0,0.9,0.4,0.9,0.9v0.8
		C485.8,954.9,485.4,955.2,484.9,955.2z"/>
</g>
<g>
	<polygon class="st13" points="645.2,904.8 662.4,910.4 662.4,928.5 645.2,934.1 634.5,919.4 	"/>
	<polygon class="st13" points="670.2,898.2 689.5,910.7 683.5,932.9 660.6,934.1 652.3,912.7 	"/>
	<circle class="st9" cx="728.3" cy="970.1" r="11.9"/>
	<path class="st14" d="M648.5,957.8h8.4c-1.3-0.4-2.7-0.7-4.2-0.7S649.8,957.3,648.5,957.8z"/>
	<path class="st14" d="M723.9,957.8h8.4c-1.3-0.4-2.7-0.7-4.2-0.7S725.2,957.3,723.9,957.8z"/>
	<path class="st9" d="M688.6,954.2v-18c0-0.4,0-0.9-0.1-1.3c1.9-0.4,3.3-2.4,3.3-4c0-2.5-1.7-4.3-3.9-4.3h-54.6
		c-2.2,0-3.9,1.7-3.9,4.2c0,2,1.6,4.1,4.6,4.1c0,1-0.1,0.8-0.1,1.2v18c0,1.3,0.2,2.5,0.6,3.6h14.1c1.3-0.6,2.7-1,4.2-1
		s2.9,0.3,4.2,1h31C688.3,956.7,688.6,955.5,688.6,954.2z"/>
	<circle class="st9" cx="652.7" cy="970.1" r="11.9"/>
	<circle class="st7" cx="652.7" cy="970.1" r="5.9"/>
	<circle class="st7" cx="728.3" cy="970.1" r="5.9"/>
	<path class="st15" d="M698.3,948.4h30.2l-0.5-0.1l-4.6-13.7l0,0c0-0.2,0-0.4-0.1-0.5h-25L698.3,948.4L698.3,948.4z"/>
	<rect x="714.6" y="933.1" class="st16" width="3.6" height="15.3"/>
	<path class="st17" d="M700.6,947.2L700.6,947.2c-0.5,0-0.9-0.4-0.9-0.9v-8c0-0.5,0.4-0.9,0.9-0.9l0,0c0.5,0,0.9,0.4,0.9,0.9v8
		C701.5,946.8,701.1,947.2,700.6,947.2z"/>
	<path class="st17" d="M636.5,951.2L636.5,951.2c-0.5,0-0.9-0.4-0.9-0.9V937c0-0.5,0.4-0.9,0.9-0.9l0,0c0.5,0,0.9,0.4,0.9,0.9v13.3
		C637.3,950.8,636.9,951.2,636.5,951.2z"/>
	<path class="st17" d="M636.5,955.2L636.5,955.2c-0.5,0-0.9-0.4-0.9-0.9v-0.8c0-0.5,0.4-0.9,0.9-0.9l0,0c0.5,0,0.9,0.4,0.9,0.9v0.8
		C637.3,954.9,636.9,955.2,636.5,955.2z"/>
	<path class="st16" d="M630.9,957.8c-1.7,0-3,1.3-3,3v3.6c0,0,0,0,0,0.1c0.1,3.1,1.5,5.7,3.6,5.7h8.1c0-5.7,3.7-10.6,8.9-12.4h-14.1
		L630.9,957.8L630.9,957.8z"/>
	<path class="st16" d="M687.9,957.8h-31c5.1,1.8,8.9,6.6,8.9,12.4h29v-12.4H687.9z"/>
	<path class="st16" d="M745.6,952.4l-17.1-3.9h-30.2v-14.3H727c0.6-0.1,1-0.6,1-1.2v-1.2c0-0.7-0.6-1.3-1.3-1.3H696
		c-0.7,0-1.3,0.6-1.3,1.3v2.9v4.2v18.9v12.4H715c0-5.7,3.7-10.6,8.9-12.4c1.3-0.4,2.7-0.7,4.2-0.7s2.9,0.3,4.2,0.7
		c5.1,1.8,8.9,6.6,8.9,12.4h2.6c0.8,0,4.9-1.6,4.9-5.8v-6.6v-2.4C748.6,953.7,747.3,952.4,745.6,952.4z"/>
	<path class="st18" d="M638.7,971.1h-0.9v-1H635v1h-6.1c-0.6,0-1,0.5-1,1v0.9c0,0.6,0.4,1,1,1h9.8c0.5,0,1-0.4,1-1v-0.9
		C639.7,971.5,639.3,971.1,638.7,971.1z"/>
</g>
<circle class="st9" cx="872.6" cy="970.1" r="11.9"/>
<path class="st14" d="M792.7,957.8h8.4c-1.3-0.4-2.7-0.7-4.2-0.7S794.1,957.3,792.7,957.8z"/>
<path class="st14" d="M868.1,957.8h8.4c-1.3-0.4-2.7-0.7-4.2-0.7S869.5,957.3,868.1,957.8z"/>
<path class="st9" d="M832.8,954.2v-18c0-0.4,0-0.9-0.1-1.3c1.9-0.4,3.3-2.4,3.3-4c0-2.5-1.7-4.3-3.9-4.3h-54.6
	c-2.2,0-3.9,1.7-3.9,4.2c0,2,1.6,4.1,4.6,4.1c0,1-0.1,0.8-0.1,1.2v18c0,1.3,0.2,2.5,0.6,3.6h14.1c1.3-0.6,2.7-1,4.2-1s2.9,0.3,4.2,1
	h31C832.6,956.7,832.8,955.5,832.8,954.2z"/>
<circle class="st9" cx="796.9" cy="970.1" r="11.9"/>
<circle class="st7" cx="796.9" cy="970.1" r="5.9"/>
<circle class="st7" cx="872.6" cy="970.1" r="5.9"/>
<path class="st15" d="M842.6,948.4h30.2l-0.5-0.1l-4.6-13.7l0,0c0-0.2,0-0.4-0.1-0.5h-25L842.6,948.4L842.6,948.4z"/>
<path class="st17" d="M844.9,947.2L844.9,947.2c-0.5,0-0.9-0.4-0.9-0.9v-8c0-0.5,0.4-0.9,0.9-0.9l0,0c0.5,0,0.9,0.4,0.9,0.9v8
	C845.8,946.8,845.4,947.2,844.9,947.2z"/>
<path class="st17" d="M780.7,951.2L780.7,951.2c-0.5,0-0.9-0.4-0.9-0.9V937c0-0.5,0.4-0.9,0.9-0.9l0,0c0.5,0,0.9,0.4,0.9,0.9v13.3
	C781.6,950.8,781.2,951.2,780.7,951.2z"/>
<path class="st17" d="M780.7,955.2L780.7,955.2c-0.5,0-0.9-0.4-0.9-0.9v-0.8c0-0.5,0.4-0.9,0.9-0.9l0,0c0.5,0,0.9,0.4,0.9,0.9v0.8
	C781.6,954.9,781.2,955.2,780.7,955.2z"/>
<g>
	<rect x="858.9" y="933.1" class="st16" width="3.6" height="15.3"/>
	<path class="st16" d="M775.2,957.8c-1.7,0-3,1.3-3,3v3.6c0,0,0,0,0,0.1c0.1,3.1,1.5,5.7,3.6,5.7h8.1c0-5.7,3.7-10.6,8.9-12.4h-14.1
		L775.2,957.8L775.2,957.8z"/>
	<path class="st16" d="M832.2,957.8h-31c5.1,1.8,8.9,6.6,8.9,12.4h29v-12.4H832.2z"/>
	<path class="st16" d="M889.9,952.4l-17.1-3.9h-30.2v-14.3h28.7c0.6-0.1,1-0.6,1-1.2v-1.2c0-0.7-0.6-1.3-1.3-1.3h-30.8
		c-0.7,0-1.3,0.6-1.3,1.3v2.9v4.2v18.9v12.4h20.3c0-5.7,3.7-10.6,8.9-12.4c1.3-0.4,2.7-0.7,4.2-0.7s2.9,0.3,4.2,0.7
		c5.1,1.8,8.9,6.6,8.9,12.4h2.6c0.8,0,4.9-1.6,4.9-5.8v-6.6v-2.4C892.9,953.7,891.5,952.4,889.9,952.4z"/>
</g>
<path class="st18" d="M783,971.1h-0.9v-1h-2.8v1h-6.1c-0.6,0-1,0.5-1,1v0.9c0,0.6,0.4,1,1,1h9.8c0.5,0,1-0.4,1-1v-0.9
	C784,971.5,783.6,971.1,783,971.1z"/>
<circle class="st9" cx="1022.4" cy="970.1" r="11.9"/>
<path class="st14" d="M942.6,957.8h8.4c-1.3-0.4-2.7-0.7-4.2-0.7S943.9,957.3,942.6,957.8z"/>
<path class="st14" d="M1018,957.8h8.4c-1.3-0.4-2.7-0.7-4.2-0.7S1019.3,957.3,1018,957.8z"/>
<path class="st9" d="M982.7,954.2v-18c0-0.4,0-0.9-0.1-1.3c1.9-0.4,3.3-2.4,3.3-4c0-2.5-1.7-4.3-3.9-4.3h-54.6
	c-2.2,0-3.9,1.7-3.9,4.2c0,2,1.6,4.1,4.6,4.1c0,1-0.1,0.8-0.1,1.2v18c0,1.3,0.2,2.5,0.6,3.6h14.1c1.3-0.6,2.7-1,4.2-1s2.9,0.3,4.2,1
	h31C982.5,956.7,982.7,955.5,982.7,954.2z"/>
<circle class="st9" cx="946.8" cy="970.1" r="11.9"/>
<circle class="st7" cx="946.8" cy="970.1" r="5.9"/>
<circle class="st7" cx="1022.4" cy="970.1" r="5.9"/>
<path class="st15" d="M992.5,948.4h30.2l-0.5-0.1l-4.6-13.7l0,0c0-0.2,0-0.4-0.1-0.5h-25L992.5,948.4L992.5,948.4z"/>
<path class="st17" d="M994.8,947.2L994.8,947.2c-0.5,0-0.9-0.4-0.9-0.9v-8c0-0.5,0.4-0.9,0.9-0.9l0,0c0.5,0,0.9,0.4,0.9,0.9v8
	C995.6,946.8,995.2,947.2,994.8,947.2z"/>
<path class="st17" d="M930.6,951.2L930.6,951.2c-0.5,0-0.9-0.4-0.9-0.9V937c0-0.5,0.4-0.9,0.9-0.9l0,0c0.5,0,0.9,0.4,0.9,0.9v13.3
	C931.4,950.8,931.1,951.2,930.6,951.2z"/>
<path class="st17" d="M930.6,955.2L930.6,955.2c-0.5,0-0.9-0.4-0.9-0.9v-0.8c0-0.5,0.4-0.9,0.9-0.9l0,0c0.5,0,0.9,0.4,0.9,0.9v0.8
	C931.4,954.9,931.1,955.2,930.6,955.2z"/>
<g>
	<path class="st16" d="M925,957.8c-1.6,0-3,1.3-3,3v3.6c0,0,0,0,0,0.1c0.1,3.1,1.5,5.7,3.6,5.7h8.1c0-5.7,3.7-10.6,8.9-12.4h-14.1
		L925,957.8L925,957.8z"/>
	<path class="st16" d="M1039.8,952.4l-17.1-3.9h-10.3v-14.3h8.8c0.6-0.1,1-0.6,1-1.2v-1.2c0-0.7-0.6-1.3-1.3-1.3h-30.8
		c-0.7,0-1.3,0.6-1.3,1.3v2.9v4.2v18.9H982h-31c5.1,1.8,8.9,6.6,8.9,12.4h29h20.3c0-5.7,3.7-10.6,8.9-12.4c1.3-0.4,2.7-0.7,4.2-0.7
		s2.9,0.3,4.2,0.7c5.1,1.8,8.9,6.6,8.9,12.4h2.6c0.8,0,4.9-1.6,4.9-5.8v-6.6v-2.4C1042.8,953.7,1041.4,952.4,1039.8,952.4z
		 M992.5,948.4v-14.3h16.3v14.3H992.5z"/>
</g>
<path class="st18" d="M932.9,971.1H932v-1h-2.8v1H923c-0.6,0-1,0.5-1,1v0.9c0,0.6,0.4,1,1,1h9.8c0.5,0,1-0.4,1-1v-0.9
	C933.9,971.5,933.4,971.1,932.9,971.1z"/>
<path class="st17" d="M626,972.1h-8.1l-0.1-0.1c0.7-0.6,1.1-1.4,1.1-2.3c0-1.7-1.4-3-3-3c-1.3,0-2.4,0.8-2.9,2
	c-0.4-0.2-0.9-0.4-1.4-0.4c-1.6,0-2.9,1.3-2.9,2.9c0,1.6,1.3,2.9,2.9,2.9c0.3,0,0.5,0,0.8-0.1c0,1.7,1.4,3,3,3
	c1.7,0,3.1-1.4,3.1-3.1c0-0.2,0-0.4-0.1-0.6h7.5v-1.2L626,972.1L626,972.1z"/>
<path class="st17" d="M475.2,972.1h-8.1L467,972c0.7-0.6,1.1-1.4,1.1-2.3c0-1.7-1.4-3-3-3c-1.3,0-2.4,0.8-2.9,2
	c-0.4-0.2-0.9-0.4-1.4-0.4c-1.6,0-2.9,1.3-2.9,2.9c0,1.6,1.3,2.9,2.9,2.9c0.3,0,0.5,0,0.8-0.1c0,1.7,1.4,3,3,3
	c1.7,0,3.1-1.4,3.1-3.1c0-0.2,0-0.4-0.1-0.6h7.5v-1.2L475.2,972.1L475.2,972.1z"/>
<path class="st17" d="M769,972.1h-8l-0.1-0.1c0.7-0.6,1.1-1.4,1.1-2.3c0-1.7-1.4-3-3-3c-1.3,0-2.4,0.8-2.8,2
	c-0.4-0.2-0.9-0.4-1.4-0.4c-1.6,0-2.9,1.3-2.9,2.9c0,1.6,1.3,2.9,2.9,2.9c0.3,0,0.5,0,0.8-0.1c0,1.7,1.4,3,3,3
	c1.7,0,3.1-1.4,3.1-3.1c0-0.2,0-0.4-0.1-0.6h7.5L769,972.1L769,972.1z"/>
<path class="st17" d="M920.1,972.1H912l-0.1-0.1c0.7-0.6,1.1-1.4,1.1-2.3c0-1.7-1.4-3-3-3c-1.3,0-2.4,0.8-2.8,2
	c-0.4-0.2-0.9-0.4-1.4-0.4c-1.6,0-2.9,1.3-2.9,2.9c0,1.6,1.3,2.9,2.9,2.9c0.3,0,0.5,0,0.8-0.1c0,1.7,1.4,3,3,3
	c1.7,0,3.1-1.4,3.1-3.1c0-0.2,0-0.4-0.1-0.6h7.5V972.1z"/>
<g>
	<rect x="331.3" y="787.1" class="st1" width="81.3" height="295"/>
	<g class="st6">
		<g>
			<g>
				<rect x="340.4" y="799.3" class="st7" width="26.4" height="8.8"/>
				<rect x="377.1" y="799.3" class="st7" width="26.4" height="8.8"/>
			</g>
			<g>
				<rect x="340.4" y="815.9" class="st7" width="26.4" height="8.8"/>
				<rect x="377.1" y="815.9" class="st7" width="26.4" height="8.8"/>
			</g>
			<g>
				<rect x="340.4" y="832.5" class="st7" width="26.4" height="8.8"/>
				<rect x="377.1" y="832.5" class="st7" width="26.4" height="8.8"/>
			</g>
			<g>
				<rect x="340.4" y="849.1" class="st7" width="26.4" height="8.8"/>
				<rect x="377.1" y="849.1" class="st7" width="26.4" height="8.8"/>
			</g>
			<g>
				<rect x="340.4" y="865.7" class="st7" width="26.4" height="8.8"/>
				<rect x="377.1" y="865.7" class="st7" width="26.4" height="8.8"/>
			</g>
			<g>
				<rect x="340.4" y="882.3" class="st7" width="26.4" height="8.8"/>
				<rect x="377.1" y="882.3" class="st7" width="26.4" height="8.8"/>
			</g>
			<g>
				<rect x="340.4" y="899" class="st7" width="26.4" height="8.8"/>
				<rect x="377.1" y="899" class="st7" width="26.4" height="8.8"/>
			</g>
			<g>
				<rect x="340.4" y="915.6" class="st7" width="26.4" height="8.8"/>
				<rect x="377.1" y="915.6" class="st7" width="26.4" height="8.8"/>
			</g>
			<g>
				<rect x="340.4" y="932.2" class="st7" width="26.4" height="8.8"/>
				<rect x="377.1" y="932.2" class="st7" width="26.4" height="8.8"/>
			</g>
		</g>
		<g>
			<g>
				<rect x="340.4" y="948.4" class="st7" width="26.4" height="8.8"/>
				<rect x="377.1" y="948.4" class="st7" width="26.4" height="8.8"/>
			</g>
			<g>
				<rect x="340.4" y="965" class="st7" width="26.4" height="8.8"/>
				<rect x="377.1" y="965" class="st7" width="26.4" height="8.8"/>
			</g>
			<g>
				<rect x="340.4" y="981.6" class="st7" width="26.4" height="8.8"/>
				<rect x="377.1" y="981.6" class="st7" width="26.4" height="8.8"/>
			</g>
			<g>
				<rect x="340.4" y="998.3" class="st7" width="26.4" height="8.8"/>
				<rect x="377.1" y="998.3" class="st7" width="26.4" height="8.8"/>
			</g>
		</g>
	</g>
</g>
<g>
	<rect x="415.4" y="846.1" class="st1" width="81.3" height="236.2"/>
	<g class="st6">
		<g>
			<g>
				<rect x="424.6" y="855.9" class="st7" width="26.4" height="7"/>
				<rect x="461.2" y="855.9" class="st7" width="26.4" height="7"/>
			</g>
			<g>
				<rect x="424.6" y="869.2" class="st7" width="26.4" height="7"/>
				<rect x="461.2" y="869.2" class="st7" width="26.4" height="7"/>
			</g>
			<g>
				<rect x="424.6" y="882.5" class="st7" width="26.4" height="7"/>
				<rect x="461.2" y="882.5" class="st7" width="26.4" height="7"/>
			</g>
			<g>
				<rect x="424.6" y="895.8" class="st7" width="26.4" height="7"/>
				<rect x="461.2" y="895.8" class="st7" width="26.4" height="7"/>
			</g>
			<g>
				<rect x="424.6" y="909.1" class="st7" width="26.4" height="7"/>
				<rect x="461.2" y="909.1" class="st7" width="26.4" height="7"/>
			</g>
			<g>
				<rect x="424.6" y="922.4" class="st7" width="26.4" height="7"/>
				<rect x="461.2" y="922.4" class="st7" width="26.4" height="7"/>
			</g>
			<g>
				<rect x="424.6" y="935.7" class="st7" width="26.4" height="7"/>
				<rect x="461.2" y="935.7" class="st7" width="26.4" height="7"/>
			</g>
			<g>
				<rect x="424.6" y="949" class="st7" width="26.4" height="7"/>
				<rect x="461.2" y="949" class="st7" width="26.4" height="7"/>
			</g>
			<g>
				<rect x="424.6" y="962.3" class="st7" width="26.4" height="7"/>
				<rect x="461.2" y="962.3" class="st7" width="26.4" height="7"/>
			</g>
		</g>
		<g>
			<g>
				<rect x="424.6" y="975.3" class="st7" width="26.4" height="7"/>
				<rect x="461.2" y="975.3" class="st7" width="26.4" height="7"/>
			</g>
			<g>
				<rect x="424.6" y="988.6" class="st7" width="26.4" height="7"/>
				<rect x="461.2" y="988.6" class="st7" width="26.4" height="7"/>
			</g>
			<g>
				<rect x="424.6" y="1001.9" class="st7" width="26.4" height="7"/>
				<rect x="461.2" y="1001.9" class="st7" width="26.4" height="7"/>
			</g>
			<g>
				<rect x="424.6" y="1015.2" class="st7" width="26.4" height="7"/>
				<rect x="461.2" y="1015.2" class="st7" width="26.4" height="7"/>
			</g>
		</g>
	</g>
</g>
<g>
	<rect x="162.8" y="787.4" class="st1" width="81.3" height="294.7"/>
	<g class="st6">
		<g>
			<g>
				<rect x="172" y="799.5" class="st7" width="26.4" height="8.8"/>
				<rect x="208.6" y="799.5" class="st7" width="26.4" height="8.8"/>
			</g>
			<g>
				<rect x="172" y="816.1" class="st7" width="26.4" height="8.8"/>
				<rect x="208.6" y="816.1" class="st7" width="26.4" height="8.8"/>
			</g>
			<g>
				<rect x="172" y="832.7" class="st7" width="26.4" height="8.8"/>
				<rect x="208.6" y="832.7" class="st7" width="26.4" height="8.8"/>
			</g>
			<g>
				<rect x="172" y="849.3" class="st7" width="26.4" height="8.8"/>
				<rect x="208.6" y="849.3" class="st7" width="26.4" height="8.8"/>
			</g>
			<g>
				<rect x="172" y="865.9" class="st7" width="26.4" height="8.8"/>
				<rect x="208.6" y="865.9" class="st7" width="26.4" height="8.8"/>
			</g>
			<g>
				<rect x="172" y="882.5" class="st7" width="26.4" height="8.8"/>
				<rect x="208.6" y="882.5" class="st7" width="26.4" height="8.8"/>
			</g>
			<g>
				<rect x="172" y="899.2" class="st7" width="26.4" height="8.8"/>
				<rect x="208.6" y="899.2" class="st7" width="26.4" height="8.8"/>
			</g>
			<g>
				<rect x="172" y="915.8" class="st7" width="26.4" height="8.8"/>
				<rect x="208.6" y="915.8" class="st7" width="26.4" height="8.8"/>
			</g>
			<g>
				<rect x="172" y="932.4" class="st7" width="26.4" height="8.8"/>
				<rect x="208.6" y="932.4" class="st7" width="26.4" height="8.8"/>
			</g>
		</g>
		<g>
			<g>
				<rect x="172" y="948.5" class="st7" width="26.4" height="8.8"/>
				<rect x="208.6" y="948.5" class="st7" width="26.4" height="8.8"/>
			</g>
			<g>
				<rect x="172" y="965.1" class="st7" width="26.4" height="8.8"/>
				<rect x="208.6" y="965.1" class="st7" width="26.4" height="8.8"/>
			</g>
			<g>
				<rect x="172" y="981.7" class="st7" width="26.4" height="8.8"/>
				<rect x="208.6" y="981.7" class="st7" width="26.4" height="8.8"/>
			</g>
			<g>
				<rect x="172" y="998.3" class="st7" width="26.4" height="8.8"/>
				<rect x="208.6" y="998.3" class="st7" width="26.4" height="8.8"/>
			</g>
		</g>
	</g>
</g>
<g>
	<rect x="247" y="846.1" class="st1" width="81.3" height="236.2"/>
	<g class="st6">
		<g>
			<g>
				<rect x="256.1" y="855.9" class="st7" width="26.4" height="7"/>
				<rect x="292.8" y="855.9" class="st7" width="26.4" height="7"/>
			</g>
			<g>
				<rect x="256.1" y="869.2" class="st7" width="26.4" height="7"/>
				<rect x="292.8" y="869.2" class="st7" width="26.4" height="7"/>
			</g>
			<g>
				<rect x="256.1" y="882.5" class="st7" width="26.4" height="7"/>
				<rect x="292.8" y="882.5" class="st7" width="26.4" height="7"/>
			</g>
			<g>
				<rect x="256.1" y="895.8" class="st7" width="26.4" height="7"/>
				<rect x="292.8" y="895.8" class="st7" width="26.4" height="7"/>
			</g>
			<g>
				<rect x="256.1" y="909.1" class="st7" width="26.4" height="7"/>
				<rect x="292.8" y="909.1" class="st7" width="26.4" height="7"/>
			</g>
			<g>
				<rect x="256.1" y="922.4" class="st7" width="26.4" height="7"/>
				<rect x="292.8" y="922.4" class="st7" width="26.4" height="7"/>
			</g>
			<g>
				<rect x="256.1" y="935.7" class="st7" width="26.4" height="7"/>
				<rect x="292.8" y="935.7" class="st7" width="26.4" height="7"/>
			</g>
			<g>
				<rect x="256.1" y="949" class="st7" width="26.4" height="7"/>
				<rect x="292.8" y="949" class="st7" width="26.4" height="7"/>
			</g>
			<g>
				<rect x="256.1" y="962.3" class="st7" width="26.4" height="7"/>
				<rect x="292.8" y="962.3" class="st7" width="26.4" height="7"/>
			</g>
		</g>
		<g>
			<g>
				<rect x="256.1" y="975.3" class="st7" width="26.4" height="7"/>
				<rect x="292.8" y="975.3" class="st7" width="26.4" height="7"/>
			</g>
			<g>
				<rect x="256.1" y="988.6" class="st7" width="26.4" height="7"/>
				<rect x="292.8" y="988.6" class="st7" width="26.4" height="7"/>
			</g>
			<g>
				<rect x="256.1" y="1001.9" class="st7" width="26.4" height="7"/>
				<rect x="292.8" y="1001.9" class="st7" width="26.4" height="7"/>
			</g>
			<g>
				<rect x="256.1" y="1015.2" class="st7" width="26.4" height="7"/>
				<rect x="292.8" y="1015.2" class="st7" width="26.4" height="7"/>
			</g>
		</g>
	</g>
</g>
<g>
	<rect x="78.6" y="866.7" class="st1" width="81.3" height="215.4"/>
	<g class="st6">
		<g>
			<g>
				<rect x="87.7" y="875.6" class="st7" width="26.4" height="6.4"/>
				<rect x="124.4" y="875.6" class="st7" width="26.4" height="6.4"/>
			</g>
			<g>
				<rect x="87.7" y="887.7" class="st7" width="26.4" height="6.4"/>
				<rect x="124.4" y="887.7" class="st7" width="26.4" height="6.4"/>
			</g>
			<g>
				<rect x="87.7" y="899.9" class="st7" width="26.4" height="6.4"/>
				<rect x="124.4" y="899.9" class="st7" width="26.4" height="6.4"/>
			</g>
			<g>
				<rect x="87.7" y="912" class="st7" width="26.4" height="6.4"/>
				<rect x="124.4" y="912" class="st7" width="26.4" height="6.4"/>
			</g>
			<g>
				<rect x="87.7" y="924.1" class="st7" width="26.4" height="6.4"/>
				<rect x="124.4" y="924.1" class="st7" width="26.4" height="6.4"/>
			</g>
			<g>
				<rect x="87.7" y="936.3" class="st7" width="26.4" height="6.4"/>
				<rect x="124.4" y="936.3" class="st7" width="26.4" height="6.4"/>
			</g>
			<g>
				<rect x="87.7" y="948.4" class="st7" width="26.4" height="6.4"/>
				<rect x="124.4" y="948.4" class="st7" width="26.4" height="6.4"/>
			</g>
			<g>
				<rect x="87.7" y="960.5" class="st7" width="26.4" height="6.4"/>
				<rect x="124.4" y="960.5" class="st7" width="26.4" height="6.4"/>
			</g>
			<g>
				<rect x="87.7" y="972.7" class="st7" width="26.4" height="6.4"/>
				<rect x="124.4" y="972.7" class="st7" width="26.4" height="6.4"/>
			</g>
		</g>
		<g>
			<g>
				<rect x="87.7" y="984.5" class="st7" width="26.4" height="6.4"/>
				<rect x="124.4" y="984.5" class="st7" width="26.4" height="6.4"/>
			</g>
			<g>
				<rect x="87.7" y="996.6" class="st7" width="26.4" height="6.4"/>
				<rect x="124.4" y="996.6" class="st7" width="26.4" height="6.4"/>
			</g>
			<g>
				<rect x="87.7" y="1008.8" class="st7" width="26.4" height="6.4"/>
				<rect x="124.4" y="1008.8" class="st7" width="26.4" height="6.4"/>
			</g>
			<g>
				<rect x="87.7" y="1020.9" class="st7" width="26.4" height="6.4"/>
				<rect x="124.4" y="1020.9" class="st7" width="26.4" height="6.4"/>
			</g>
		</g>
	</g>
</g>
<g>
	<rect x="-5.7" y="797.2" class="st1" width="81.3" height="285.2"/>
	<g class="st6">
		<g>
			<g>
				<rect x="3.4" y="809" class="st7" width="26.4" height="8.5"/>
				<rect x="40.1" y="809" class="st7" width="26.4" height="8.5"/>
			</g>
			<g>
				<rect x="3.4" y="825" class="st7" width="26.4" height="8.5"/>
				<rect x="40.1" y="825" class="st7" width="26.4" height="8.5"/>
			</g>
			<g>
				<rect x="3.4" y="841.1" class="st7" width="26.4" height="8.5"/>
				<rect x="40.1" y="841.1" class="st7" width="26.4" height="8.5"/>
			</g>
			<g>
				<rect x="3.4" y="857.2" class="st7" width="26.4" height="8.5"/>
				<rect x="40.1" y="857.2" class="st7" width="26.4" height="8.5"/>
			</g>
			<g>
				<rect x="3.4" y="873.2" class="st7" width="26.4" height="8.5"/>
				<rect x="40.1" y="873.2" class="st7" width="26.4" height="8.5"/>
			</g>
			<g>
				<rect x="3.4" y="889.3" class="st7" width="26.4" height="8.5"/>
				<rect x="40.1" y="889.3" class="st7" width="26.4" height="8.5"/>
			</g>
			<g>
				<rect x="3.4" y="905.3" class="st7" width="26.4" height="8.5"/>
				<rect x="40.1" y="905.3" class="st7" width="26.4" height="8.5"/>
			</g>
			<g>
				<rect x="3.4" y="921.4" class="st7" width="26.4" height="8.5"/>
				<rect x="40.1" y="921.4" class="st7" width="26.4" height="8.5"/>
			</g>
			<g>
				<rect x="3.4" y="937.5" class="st7" width="26.4" height="8.5"/>
				<rect x="40.1" y="937.5" class="st7" width="26.4" height="8.5"/>
			</g>
		</g>
		<g>
			<g>
				<rect x="3.4" y="953.1" class="st7" width="26.4" height="8.5"/>
				<rect x="40.1" y="953.1" class="st7" width="26.4" height="8.5"/>
			</g>
			<g>
				<rect x="3.4" y="969.2" class="st7" width="26.4" height="8.5"/>
				<rect x="40.1" y="969.2" class="st7" width="26.4" height="8.5"/>
			</g>
			<g>
				<rect x="3.4" y="985.3" class="st7" width="26.4" height="8.5"/>
				<rect x="40.1" y="985.3" class="st7" width="26.4" height="8.5"/>
			</g>
			<g>
				<rect x="3.4" y="1001.3" class="st7" width="26.4" height="8.5"/>
				<rect x="40.1" y="1001.3" class="st7" width="26.4" height="8.5"/>
			</g>
		</g>
	</g>
</g>
<g>
	<path class="st19" d="M615.6,834.4c0-0.1,0-0.2,0-0.4c0-9-7.3-16.4-16.4-16.4c-0.4,0-0.7,0-1.1,0.1c0-0.3,0-0.6,0-0.9
		c0-6.1-4.9-11-11-11c-1.8,0-3.6,0.5-5.1,1.3c-1.8-5.7-7.1-9.8-13.4-9.8c-7.8,0-14.1,6.3-14.1,14.1c0,2.3,0.6,4.4,1.5,6.4
		c-0.5,0-1-0.1-1.5-0.1c-9,0-16.4,7.3-16.4,16.4c0,0.1,0,0.2,0,0.4L615.6,834.4L615.6,834.4z"/>
	<path class="st19" d="M576.9,820.6c-0.4-1.2-0.7-2.5-0.7-3.8c0-6.1,4.9-11,11-11c5.1,0,9.4,3.5,10.6,8.1"/>
</g>
<g>
	<path class="st19" d="M198.8,940.9c0-0.1,0-0.2,0-0.4c0-9-7.3-16.4-16.4-16.4c-0.4,0-0.7,0-1.1,0.1c0-0.3,0-0.6,0-0.9
		c0-6.1-4.9-11-11-11c-1.8,0-3.6,0.5-5.1,1.3c-1.8-5.7-7.1-9.8-13.4-9.8c-7.8,0-14.1,6.3-14.1,14.1c0,2.3,0.6,4.4,1.5,6.4
		c-0.5,0-1-0.1-1.5-0.1c-9,0-16.4,7.3-16.4,16.4c0,0.1,0,0.2,0,0.4L198.8,940.9L198.8,940.9z"/>
	<path class="st19" d="M160.1,927.2c-0.4-1.2-0.7-2.5-0.7-3.8c0-6.1,4.9-11,11-11c5.1,0,9.4,3.5,10.6,8.1"/>
</g>
<g>
	<path class="st19" d="M111,862.7c0-0.1,0-0.2,0-0.4c0-9-7.3-16.4-16.4-16.4c-0.4,0-0.7,0-1.1,0.1c0-0.3,0-0.6,0-0.9
		c0-6.1-4.9-11-11-11c-1.8,0-3.6,0.5-5.1,1.3c-1.8-5.7-7.1-9.8-13.4-9.8c-7.8,0-14.1,6.3-14.1,14.1c0,2.3,0.6,4.4,1.5,6.4
		c-0.5,0-1-0.1-1.5-0.1c-9,0-16.4,7.3-16.4,16.4c0,0.1,0,0.2,0,0.4L111,862.7L111,862.7z"/>
	<path class="st19" d="M72.3,848.9c-0.4-1.2-0.7-2.5-0.7-3.8c0-6.1,4.9-11,11-11c5.1,0,9.4,3.5,10.6,8.1"/>
</g>
<rect x="496.8" y="982" class="st1" width="1423.2" height="12.3"/>
<g>
	<rect x="643.1" y="982" class="st1" width="12.3" height="100.1"/>
	<path class="st1" d="M656.4,997.5h-14.2c-0.9,0-1.6-0.7-1.6-1.6l0,0c0-0.9,0.7-1.6,1.6-1.6h14.2c0.9,0,1.6,0.7,1.6,1.6l0,0
		C658,996.8,657.3,997.5,656.4,997.5z"/>
	<path class="st1" d="M656.4,1082.1h-14.2c-0.9,0-1.6-0.7-1.6-1.6l0,0c0-0.9,0.7-1.6,1.6-1.6h14.2c0.9,0,1.6,0.7,1.6,1.6l0,0
		C658,1081.4,657.3,1082.1,656.4,1082.1z"/>
</g>
<g>
	<rect x="831.3" y="982" class="st1" width="12.3" height="100.1"/>
	<path class="st1" d="M844.5,997.5h-14.2c-0.9,0-1.6-0.7-1.6-1.6l0,0c0-0.9,0.7-1.6,1.6-1.6h14.2c0.9,0,1.6,0.7,1.6,1.6l0,0
		C846.1,996.8,845.4,997.5,844.5,997.5z"/>
	<path class="st1" d="M844.5,1082.1h-14.2c-0.9,0-1.6-0.7-1.6-1.6l0,0c0-0.9,0.7-1.6,1.6-1.6h14.2c0.9,0,1.6,0.7,1.6,1.6l0,0
		C846.1,1081.4,845.4,1082.1,844.5,1082.1z"/>
</g>
<g>
	<rect x="1019.5" y="982" class="st1" width="12.3" height="100.1"/>
	<path class="st1" d="M1032.7,997.5h-14.2c-0.9,0-1.6-0.7-1.6-1.6l0,0c0-0.9,0.7-1.6,1.6-1.6h14.2c0.9,0,1.6,0.7,1.6,1.6l0,0
		C1034.3,996.8,1033.6,997.5,1032.7,997.5z"/>
	<path class="st1" d="M1032.7,1082.1h-14.2c-0.9,0-1.6-0.7-1.6-1.6l0,0c0-0.9,0.7-1.6,1.6-1.6h14.2c0.9,0,1.6,0.7,1.6,1.6l0,0
		C1034.3,1081.4,1033.6,1082.1,1032.7,1082.1z"/>
</g>
<g>
	<rect x="1207.6" y="982" class="st1" width="12.3" height="100.1"/>
	<path class="st1" d="M1220.9,997.5h-14.2c-0.9,0-1.6-0.7-1.6-1.6l0,0c0-0.9,0.7-1.6,1.6-1.6h14.2c0.9,0,1.6,0.7,1.6,1.6l0,0
		C1222.5,996.8,1221.8,997.5,1220.9,997.5z"/>
	<path class="st1" d="M1220.9,1082.1h-14.2c-0.9,0-1.6-0.7-1.6-1.6l0,0c0-0.9,0.7-1.6,1.6-1.6h14.2c0.9,0,1.6,0.7,1.6,1.6l0,0
		C1222.5,1081.4,1221.8,1082.1,1220.9,1082.1z"/>
</g>
<g>
	<rect x="1395.8" y="982" class="st1" width="12.3" height="100.1"/>
	<path class="st1" d="M1409,997.5h-14.2c-0.9,0-1.6-0.7-1.6-1.6l0,0c0-0.9,0.7-1.6,1.6-1.6h14.2c0.9,0,1.6,0.7,1.6,1.6l0,0
		C1410.6,996.8,1409.9,997.5,1409,997.5z"/>
	<path class="st1" d="M1409,1082.1h-14.2c-0.9,0-1.6-0.7-1.6-1.6l0,0c0-0.9,0.7-1.6,1.6-1.6h14.2c0.9,0,1.6,0.7,1.6,1.6l0,0
		C1410.6,1081.4,1409.9,1082.1,1409,1082.1z"/>
</g>
<g>
	<rect x="1584" y="982" class="st1" width="12.3" height="100.1"/>
	<path class="st1" d="M1597.2,997.5H1583c-0.9,0-1.6-0.7-1.6-1.6l0,0c0-0.9,0.7-1.6,1.6-1.6h14.2c0.9,0,1.6,0.7,1.6,1.6l0,0
		C1598.8,996.8,1598.1,997.5,1597.2,997.5z"/>
	<path class="st1" d="M1597.2,1082.1H1583c-0.9,0-1.6-0.7-1.6-1.6l0,0c0-0.9,0.7-1.6,1.6-1.6h14.2c0.9,0,1.6,0.7,1.6,1.6l0,0
		C1598.8,1081.4,1598.1,1082.1,1597.2,1082.1z"/>
</g>
<g>
	<rect x="1772.1" y="982" class="st1" width="12.3" height="100.1"/>
	<path class="st1" d="M1785.4,997.5h-14.2c-0.9,0-1.6-0.7-1.6-1.6l0,0c0-0.9,0.7-1.6,1.6-1.6h14.2c0.9,0,1.6,0.7,1.6,1.6l0,0
		C1787,996.8,1786.3,997.5,1785.4,997.5z"/>
	<path class="st1" d="M1785.4,1082.1h-14.2c-0.9,0-1.6-0.7-1.6-1.6l0,0c0-0.9,0.7-1.6,1.6-1.6h14.2c0.9,0,1.6,0.7,1.6,1.6l0,0
		C1787,1081.4,1786.3,1082.1,1785.4,1082.1z"/>
</g>
<polygon class="st11" points="450.3,807.6 460.7,792.8 468.3,809.3 "/>
<g>
	<path class="st19" d="M454.1,879.4c0-0.1,0-0.2,0-0.4c0-9-7.3-16.4-16.4-16.4c-0.4,0-0.7,0-1.1,0.1c0-0.3,0-0.6,0-0.9
		c0-6.1-4.9-11-11-11c-1.8,0-3.6,0.5-5.1,1.3c-1.8-5.7-7.1-9.8-13.4-9.8c-7.8,0-14.1,6.3-14.1,14.1c0,2.3,0.6,4.4,1.5,6.4
		c-0.5,0-1-0.1-1.5-0.1c-9,0-16.4,7.3-16.4,16.4c0,0.1,0,0.2,0,0.4L454.1,879.4L454.1,879.4z"/>
	<path class="st19" d="M415.4,865.6c-0.4-1.2-0.7-2.5-0.7-3.8c0-6.1,4.9-11,11-11c5.1,0,9.4,3.5,10.6,8.1"/>
</g>
<ellipse transform="matrix(0.3451 -0.9386 0.9386 0.3451 -430.1366 958.1995)" class="st9" cx="471.5" cy="787.3" rx="1.5" ry="1.5"/>
<ellipse transform="matrix(0.3451 -0.9386 0.9386 0.3451 -441.8229 974.1559)" class="st9" cx="477.1" cy="803.7" rx="1.5" ry="1.5"/>
<g>
	<g>
		<path class="st7" d="M193.4,717.8c0,0.3,0,0.7,0,1.3s0,1,0,1.3c-0.2,0.1-0.4,0.1-0.7,0.1s-0.8-0.1-1.3-0.3l-0.1-0.3
			c0-0.1-0.1-0.1-0.1-0.2c0-0.2,0-0.5,0-0.8s0-0.6,0-0.8c0-0.7,0-1.7,0-3s0-2.3,0-3c0-0.9,0-1.8,0.1-2.6c0-0.1-0.1-0.2-0.3-0.2h-0.1
			c-0.5,0.9-1.2,2.1-2.3,3.8c-0.1,0.1-0.2,0.3-0.4,0.5c-0.1,0.1-0.1,0.3-0.3,0.6c-0.2,0.5-0.7,1.3-1.4,2.4c-0.6,1-1.1,1.8-1.3,2.4
			c-0.3-0.4-0.6-0.8-0.9-1.4c-0.2-0.5-0.4-1-0.7-1.6c-1.1-2.2-2.3-4.2-3.4-5.8c-0.3-0.1-0.5-0.2-0.7-0.5c0,0.2-0.1,0.3-0.1,0.4
			c0,0.2,0,0.4,0.1,0.7s0.1,0.6,0.1,0.7c0,0-0.1,2.8-0.3,8.5c-0.3,0.1-0.6,0.2-0.9,0.2c-0.3,0-0.6,0-1.2-0.1
			c-0.2-1.4-0.2-2.9-0.2-4.8c0-0.9,0-2.3,0.1-4.1s0.1-3.2,0.1-4.2c0-1.3,0-2.3-0.1-3c0.2,0,0.5,0,1,0c0.4,0,0.7,0,0.9,0
			s0.4,0.1,0.6,0.3c0.1,0.2,0.2,0.4,0.3,0.6c0.1,0.2,0.3,0.5,0.5,0.9c0.5,0.8,1.2,2.2,2.3,4.2c1,1.8,1.8,3.2,2.4,4.1
			c0.3-0.1,0.7-0.5,1.2-1.3c0.2-0.4,1.1-1.8,2.6-4.3c1.1-1.7,1.9-3.2,2.4-4.4c0.2-0.2,0.4-0.3,0.8-0.3c0.1,0,0.3,0,0.6,0.1
			c0.3,0,0.4,0.1,0.6,0.1h0.2c0.1,0.8,0.2,1.7,0.2,2.9s0,3-0.1,5.4C193.4,714.8,193.4,716.6,193.4,717.8z"/>
		<path class="st7" d="M216.3,714.7c-0.2,0.3-0.4,0.8-0.6,1.5c-0.2,0.7-0.5,1.2-0.8,1.5c-1.9,2-3.9,3-6.1,3
			c-0.8,0.1-1.3,0.1-1.5,0.1c-1.8,0-3.5-0.5-5.2-1.6c-0.9-0.5-1.5-1.3-1.9-2.1c-0.4-0.9-0.8-1.8-1.2-2.7l-0.1-3.1
			c0.3-0.6,0.6-1.6,1.1-3c0.4-1.1,1.1-2,1.9-2.6c2-1.4,4-2.1,5.8-2.1c1.4,0,2.8,0.4,4.3,1.2c1.4,0.8,2.5,1.8,3.3,3
			c0.7,1.1,1,2.8,1,5.1c0,0.2,0,0.5,0,0.8C216.3,714.2,216.3,714.5,216.3,714.7z M213.4,709.1c-0.1-0.2-0.4-0.6-0.7-1
			c-1.2-1.4-2.9-2.1-5.1-2.1c-0.9,0-1.6,0.1-2.2,0.3c-1,0.3-1.8,0.9-2.6,1.8c-0.7,0.8-1.1,1.8-1.4,2.8c-0.1,0.5-0.2,0.9-0.2,1.1
			c0,0.4,0,0.9,0.1,1.5c0.4,2.4,1.4,4,3.1,4.7c1.1,0.4,2.3,0.7,3.5,0.7c1.4,0,2.6-0.2,3.4-0.7c0.3-0.2,0.6-0.4,1-0.7
			c1.5-1.3,2.2-3,2.2-5C214.4,711.3,214.1,710.2,213.4,709.1z"/>
		<path class="st7" d="M235.5,720.6c-0.3,0-0.6,0-1.2-0.1c-1-1.1-2.5-3.2-4.7-6.2c-1.9-2.7-3.6-4.7-4.9-6.1
			c-0.2-0.1-0.4-0.2-0.6-0.2H224l-0.2,0.3c0,0.2,0,0.4,0,0.8c0,0.4,0,1-0.1,1.8s-0.1,1.4-0.1,1.8c0,3.7,0,6,0.1,7
			c0,0.1,0.1,0.3,0.1,0.3c0,0.1,0,0.1-0.1,0.3l-2.1-0.1c0.1-1.1,0.1-2.4,0.1-3.8c0-0.7,0-1.8,0-3.3s0-2.6,0-3.3
			c0-2.3,0.1-4.2,0.3-5.8c0.1,0,0.4,0,0.7,0s0.5,0,0.7,0s0.4,0,0.5,0.1c0.3,0.1,0.6,0.4,1.1,1c0.3,0.4,0.6,0.9,0.9,1.3
			c0.1,0.2,0.4,0.4,0.7,0.7c0.1,0.2,0.4,0.5,0.7,0.9c1.5,1.7,3.8,4.4,6.8,7.9h0.2c0.2-2.2,0.3-6,0.3-11.6c0.3-0.1,0.7-0.2,1-0.2
			c0.4,0,0.7,0.1,0.9,0.2c0,1,0,2.5,0.1,4.4c0,2,0.1,3.4,0.1,4.4c0,1.3,0,2.3-0.1,2.9c-0.1,1.2-0.1,2-0.1,2.5c0,0.8,0.1,1.4,0.2,1.9
			C236.2,720.5,235.9,720.6,235.5,720.6z"/>
		<path class="st7" d="M257.6,716.6c-0.1,0.8-0.5,1.6-1.2,2.3c-0.6,0.7-1.4,1.2-2.2,1.4c-2.4,0.6-3.9,0.9-4.7,0.9
			c-1.4,0-2.8-0.4-4.2-1.1c-1.5-0.7-2.7-1.6-3.6-2.7l1.3-1.2c1.9,1.9,4.1,2.8,6.6,2.8c1.1,0,2.2-0.2,3.2-0.6c1.2-0.5,2-1.2,2.4-2.1
			c0.1-0.2,0.2-0.4,0.2-0.6c0-0.1,0-0.3-0.1-0.6c-0.2-0.9-0.6-1.4-1.3-1.6c-0.7-0.2-1.6-0.3-2.6-0.4c-0.1,0-0.9,0-2.6-0.1
			c-0.4,0-1,0-1.8-0.1c-0.1,0-0.3-0.1-0.8-0.3c-1.4-0.5-2.5-1.2-3.1-2.1c-0.2-1.2-0.3-1.9-0.3-2.1c0-0.8,0.2-1.4,0.6-1.9
			c0.1-0.2,0.4-0.4,0.8-0.8c1.7-1.4,3.4-2.1,5-2.1c2.8,0.1,5,0.8,6.5,2.1c0.3,0,0.6,0.1,0.9,0.4c0,0,0,0,0,0.1v0.1
			c0,0.2-0.2,0.4-0.5,0.7c-0.2,0.1-0.4,0.4-0.6,0.7c-0.1,0-0.1,0.1-0.3,0.1s-0.3-0.1-0.5-0.2c-0.1-0.1-0.2-0.1-0.3-0.2l-0.3-0.2
			c-1.5-0.7-3.2-1.1-5-1.1c-1.6,0-2.9,0.4-3.8,1.2c-0.5,0.4-0.7,0.8-0.7,1.3c0,0.2,0,0.3,0.1,0.5c0.6,1.4,2.1,2,4.6,2
			c0.2,0,0.5,0,0.9,0s0.7,0,1,0c0.8,0,1.5,0.1,1.9,0.2c1,0.3,1.6,0.5,1.9,0.7c1.7,0.9,2.6,2.4,2.6,4.4
			C257.6,716.5,257.6,716.6,257.6,716.6z"/>
		<path class="st7" d="M276.6,705.7h-5.2l-0.1,0.2v1.8c0,4.2,0,6.6-0.1,7.4c0,0.1,0,0.4-0.1,0.8c0,0.4-0.1,0.6-0.1,0.8
			c0,0.3,0,0.8,0.1,1.4c0.1,0.6,0.1,1.1,0.1,1.4c0,0.4-0.3,0.6-0.9,0.6c-0.1,0-0.3,0-0.5,0s-0.4,0-0.6,0c-0.1,0-0.2,0-0.4,0.1
			c0.1-2.4,0.2-4.7,0.2-7c0-2.1,0-3.8-0.1-5c0-0.4,0-1.1-0.1-2c-0.1-0.4-0.4-0.5-0.9-0.5c-0.1,0-0.3,0-0.4,0c-0.2,0-0.4,0-0.4,0
			c-0.1,0-0.3,0-0.6-0.1c-0.3-0.1-0.7-0.1-1.1-0.1c-1.1,0-2,0-2.6,0.1v-1.1c0-0.7,0.2-1,0.7-1c7,0.2,10.2,0.3,9.8,0.3
			c0.8,0,1.9,0,3.5-0.1c0.1,0.7,0.2,1.2,0.2,1.2C276.8,705.4,276.8,705.6,276.6,705.7z"/>
		<path class="st7" d="M296.8,719.5c0,0.1,0,0.2,0,0.3l-0.2,0.2c-0.2,0-0.6,0-1.1,0s-0.9,0-1.1,0c-0.9,0-2.3,0-4.2-0.1
			c-1.8,0-3.2-0.1-4.2-0.1c-1.2,0-2.4,0-3.6,0.1c-0.1-0.4-0.2-0.9-0.2-1.3c0-0.4,0-0.9,0.1-1.7c0.1-0.7,0.1-1.3,0.1-1.7
			c0-0.3,0-0.7-0.1-1.3c0-0.6-0.1-1-0.1-1.3c0-0.5,0-1.4,0.1-2.4s0.1-1.9,0.1-2.4c0-0.8,0-1.5-0.1-2.3c-0.1-0.9-0.2-1.2-0.2-1
			c0-0.3,0.2-0.5,0.5-0.5c0.1,0,0.2,0,0.3,0c0.2,0,0.3,0,0.4,0c0.2,0,0.3,0,0.4-0.1c1,0.1,2.4,0.2,4.1,0.2c0.6,0,1.6,0,2.9,0
			s2.3,0,2.9,0c0.2,0,0.5,0,0.8,0c0.4,0,0.6,0,0.8,0c0.1,0,0.2-0.1,0.2-0.1c0.1-0.1,0.1-0.1,0.2-0.1s0.2,0,0.3,0.1l-0.2,1.6
			c-1.3,0.2-3,0.2-5.1,0.2c-0.5,0-1.2,0-2.2,0s-1.7,0-2.2,0c-0.6,0-1.1,0-1.4,0l-0.4,0.4c0.1,0.3,0.1,0.6,0.1,0.9
			c0,0.2,0,0.6-0.1,1.2c-0.1,0.5-0.1,0.9-0.1,1.2v0.4l0.3,0.3c0.5,0.1,1.1,0.2,1.8,0.2c1.7,0,2.3,0,1.9,0c0.7,0,1.4,0.1,1.9,0.3v1.4
			c-0.6,0.1-1.2,0.1-1.8,0.1c-2,0-3.3,0.1-3.9,0.2l-0.1,0.2l0.1,5l0.4,0.4c0.4,0,1.1,0,1.9,0c0.9,0,2.2,0,3.9,0.1
			c1.7,0.1,3,0.1,3.9,0.1s1.5,0,1.9,0c0.1,0.1,0.2,0.3,0.2,0.5c0,0.1,0,0.3,0,0.5C296.9,719.2,296.8,719.4,296.8,719.5z"/>
		<path class="st7" d="M316.8,710.6c0,0.1-0.1,0.3-0.4,0.7c-0.9,1.5-1.9,2.3-3.2,2.3c-0.1,0.1-0.2,0.2-0.4,0.3
			c0.3,0.9,0.8,1.9,1.5,3.1c0.9,1.5,1.5,2.6,1.7,3.1v0.2c-0.2,0-0.3-0.1-0.4-0.1s-0.3,0-0.5,0s-0.4,0-0.6,0c-0.6,0-0.9-0.2-1.2-0.6
			l-3-5.8l-0.4-0.3c-0.4,0.1-0.7,0.1-0.9,0.1c-0.3,0-0.8,0-1.5-0.1c-0.7,0-1.2-0.1-1.5-0.1c-0.7,0-1.3,0.1-1.8,0.2L304,714
			c0,0.2,0,0.5,0,0.9c0,0.5,0,1.2-0.1,2.2s-0.1,1.7-0.1,2.2c0,0.2,0,0.6,0.1,1l-0.2,0.2c-0.2-0.1-0.4-0.1-0.6-0.1s-0.3,0-0.4,0.1
			c-0.7,0-1-0.2-1-0.6c0-0.1,0-0.3,0.1-0.5c0-0.2,0.1-1,0.1-2.4c0.1-1.6,0.1-3.3,0.1-5.1c0-0.7,0-1.7,0-3.1c0-1.4,0-2.4,0-3.1v-1.9
			c0.4-0.1,0.9-0.1,1.4-0.1c0.4,0,0.9,0,1.6,0.1s1.3,0.1,1.7,0.1c0.6,0,1.2-0.1,1.7-0.2c1.3,0.2,2.6,0.4,3.9,0.6
			c1.5,0.3,2.7,0.8,3.5,1.5c0.4,0.3,0.7,0.6,0.8,0.9c0.3,0.4,0.4,1.3,0.4,2.4C316.9,709.8,316.9,710.3,316.8,710.6z M313.9,707
			c-1-0.7-3.3-1-6.8-1.1c-0.1,0-0.5,0-0.9,0s-0.7,0-0.9,0c-0.4,0-0.7,0.1-0.8,0.4l-0.1,4.8l0.2,0.2c0.8,0.2,1.9,0.3,3.3,0.3
			c0.3,0,0.7,0,1.3,0c0.6,0,1,0,1.3,0h0.9c0,0,0.3,0,0.7-0.1c1.6-0.2,2.5-0.8,2.7-1.6c0-0.1,0.1-0.4,0.1-0.6
			C314.9,708.1,314.5,707.4,313.9,707z"/>
		<path class="st7" d="M347,704.6L347,704.6c0.2,0,0.5,0.1,0.9,0.4c0.3,0.2,0.6,0.4,0.8,0.6c0.1,0.1,0.3,0.2,0.6,0.4
			c0.3,0.2,0.4,0.5,0.4,0.8c0,0.1,0,0.3-0.1,0.4c0,0-0.1,0.1-0.3,0.3c-0.5,0.5-0.8,0.8-1.1,0.8c0,0,0,0-0.1,0s-0.1,0-0.1,0
			c-1.2-0.7-2-1.2-2.5-1.5c-1-0.5-1.9-0.7-2.8-0.7c-2,0-3.8,0.6-5.3,1.9c-0.2,0.2-0.5,0.4-0.8,0.8c-0.1,0.1-0.2,0.3-0.3,0.6
			c-0.6,1.4-0.9,2.6-0.9,3.7c0,1.2,0.3,2.2,0.9,3.1c0.3,0.1,0.6,0.4,1,0.9c0.4,0.4,0.7,0.7,1,0.9c1.1,0.6,2.4,0.8,3.8,0.8
			c2.3,0,4.3-0.7,6.1-2c0.1,0,0.1,0,0.2,0s0.2,0,0.4-0.1c0.2-0.1,0.3-0.1,0.3-0.1c0.1,0,0.2,0.1,0.3,0.2c0.3,0.2,0.5,0.6,0.6,1.3
			c-1.9,1.4-3.8,2.3-5.7,2.7c-0.5,0.1-0.8,0.2-0.9,0.2c-3.4,0-5.8-0.7-7.2-2.2c-0.4-0.4-0.7-0.9-1.2-1.6c-0.5-0.8-0.9-1.4-1.1-1.7
			c-0.3-0.9-0.4-1.7-0.4-2.6c0-1.9,0.6-3.8,1.8-5.6c0.3-0.4,0.5-0.7,0.7-0.9s0.5-0.4,0.9-0.7c2-1.2,4.1-1.8,6.1-1.8
			c1.1,0,2.1,0.2,2.9,0.5C346.7,704.4,347.1,704.6,347,704.6z"/>
		<path class="st7" d="M357.2,720.1c-0.2,0.1-0.4,0.2-0.6,0.2c-0.1,0-0.3,0-0.6-0.1c-0.3-0.1-0.4-0.1-0.5-0.1s-0.3,0-0.3,0.1
			l-0.1-0.2c0.1-1.5,0.1-3.2,0.1-5.3c0-0.9,0-2.1-0.1-3.8c0-1.7-0.1-2.9-0.1-3.8c0-1.3,0.1-2.3,0.4-3.1c0.2,0.1,0.4,0.2,0.8,0.2
			s0.7,0,0.9,0.1c0,2.8,0.1,4.9,0.1,6.2v3.4C357.3,715.3,357.2,717.3,357.2,720.1z"/>
		<path class="st7" d="M376.6,705.7h-5.2l-0.1,0.2v1.8c0,4.2,0,6.6-0.1,7.4c0,0.1,0,0.4-0.1,0.8c0,0.4-0.1,0.6-0.1,0.8
			c0,0.3,0,0.8,0.1,1.4c0.1,0.6,0.1,1.1,0.1,1.4c0,0.4-0.3,0.6-0.9,0.6c-0.1,0-0.3,0-0.5,0s-0.4,0-0.6,0c-0.1,0-0.2,0-0.4,0.1
			c0.1-2.4,0.2-4.7,0.2-7c0-2.1,0-3.8-0.1-5c0-0.4,0-1.1-0.1-2c-0.1-0.4-0.4-0.5-0.9-0.5c-0.1,0-0.3,0-0.4,0c-0.2,0-0.4,0-0.4,0
			c-0.1,0-0.3,0-0.6-0.1c-0.3-0.1-0.7-0.1-1.1-0.1c-1.1,0-2,0-2.6,0.1v-1.1c0-0.7,0.2-1,0.7-1c7,0.2,10.2,0.3,9.8,0.3
			c0.8,0,1.9,0,3.5-0.1c0.1,0.7,0.2,1.2,0.2,1.2C376.9,705.4,376.8,705.6,376.6,705.7z"/>
		<path class="st7" d="M397.6,705.1l-6,7.4c0,0.6,0.1,1.1,0.1,1.4c0,0.6,0,1.4-0.1,2.4c-0.1,1.1-0.1,1.9-0.1,2.4c0,0.1,0,0.2,0,0.4
			s0,0.3,0,0.4c-0.2,0.2-0.5,0.3-0.9,0.3c-0.2,0-0.4,0-0.6-0.1c-0.3,0-0.5-0.1-0.6-0.1l-0.1-0.2c-0.3-0.8-0.4-1.7-0.4-2.9
			c0-0.6,0-1.5,0.1-2.5s0.1-1.7,0.1-2c-0.8-1.1-1.8-2.5-3.1-4.1c-1.1-1.3-2.2-2.7-3.3-4l2.4-0.2c0.5,0.6,2.2,2.6,5,6.2l0.5-0.1
			c0.6-0.9,1.5-2,2.6-3.2c1.8-2,2.7-3,2.8-3.1c0,0,0.1,0,0.2,0s0.1,0,0.2,0c0.2,0,0.4,0,0.7,0.1c0.3,0,0.6,0.1,0.7,0.1s0.3,0,0.4,0
			c0,0.1,0,0.1,0,0.3C398.3,704.3,398.1,704.6,397.6,705.1z"/>
	</g>
</g>
</svg>
