<?xml version="1.0" encoding="utf-8"?>
<!-- Generator: Adobe Illustrator 19.2.1, SVG Export Plug-In . SVG Version: 6.00 Build 0)  -->
<svg version="1.1" id="Layer_1" xmlns="http://www.w3.org/2000/svg" xmlns:xlink="http://www.w3.org/1999/xlink" x="0px" y="0px"
	 viewBox="0 0 256 2961.3" style="enable-background:new 0 0 256 2961.3;" xml:space="preserve">
<style type="text/css">
	.st0{fill:#CB414A;}
	.st1{fill:#231F20;}
</style>
<path class="st0" d="M220,113.7L220,113.7c0-50.8-41.2-92-92-92s-92,41.2-92,92l0,0c0,0-7,2744.4-36,2869.3c22.6,0,73.2,0,120.2,0
	c5.1,0,10.3,0,15.6,0c47,0,97.6,0,120.2,0C227,2858.1,220,113.7,220,113.7z"/>
<circle class="st1" cx="60.2" cy="111.6" r="5.6"/>
<circle class="st1" cx="109.2" cy="111.6" r="5.6"/>
<g>
	<g>
		<g>
			<g>
				<path class="st1" d="M113.6,23.5c13.1-9,29.3-11.9,44.4-7.1c14.6,4.4,24.6,16,33.7,27.5c14.6,18.4,33.1,42.2,59.9,35.7
					c-0.5-1.3-1.1-2.5-1.7-3.9c-27,17.8-57.6,40.8-91.9,34.9c-31.7-5.4-55.1-32.2-57.8-63.9c-0.2-2.7-4.4-2.7-4.2,0
					c2.7,31.7,24.6,59.2,55.8,67c37.7,9.3,70.5-14.6,100.4-34.2c2-1.3,0.7-4.4-1.7-3.9C216.4,83.8,200,41.6,179,23.6
					C159.8,7.2,132.2,5.8,111.5,20C109.2,21.4,111.4,25,113.6,23.5L113.6,23.5z"/>
			</g>
		</g>
		<g>
			<g>
				<path class="st1" d="M112,19.9c-2.7-8.8-12.7-8.5-20.4-8c-11.9,0.9-24.8,2.9-33.2,12c-8.5,9.1-6.4,22.6-13.1,32.9
					C37.5,69.3,23.3,75.7,8.9,74.3c-2.5-0.4-2.7,3.4-0.5,4.2c9.7,3.4,18,10.2,28.3,11.3c8.8,1.1,19,1.1,27-3.4
					c15.3-8.3,23.5-26.6,36.1-38.1c2-1.8-1.1-4.9-3.1-3.1C85.3,55.6,77.8,69.6,66.1,79.4c-8.2,6.8-19,7.3-29.3,6.1
					c-10-1.2-18.1-7.9-27.7-11.2c-0.2,1.3-0.4,2.7-0.5,4.2c17.3,1.7,34.9-7.6,42.6-23.5c5.3-10.9,3.4-23.9,14.2-31.5
					c6.2-4.4,38.5-14.6,42.4-2.2C108.9,23.6,112.9,22.6,112,19.9L112,19.9z"/>
			</g>
		</g>
		<g>
			<g>
				<path class="st1" d="M119.1,34.1c22.7-4.6,36.4,10.4,48.1,27.3c8.5,12.4,19,16.6,33.9,16.9c2.7,0,2.7-4.2,0-4.2
					c-12.4-0.4-22-3.6-29.5-13.9c-4.4-6.2-8.3-12.7-13.7-18.2c-10.7-10.9-24.9-15.3-39.9-12.2C115.1,30.6,116.3,34.7,119.1,34.1
					L119.1,34.1z"/>
			</g>
		</g>
		<g>
			<g>
				<path class="st1" d="M115.6,49.9c7.5,3.4,13.9,8,19.3,14c5.6,6.4,7.6,13.9,11.5,21.3c6.2,12,19.1,11.9,31,10.2
					c2.7-0.4,1.5-4.4-1.2-4c-9.9,1.3-20.7,2-26.2-8.3c-2.7-5.3-4-10.9-7.5-16c-6.1-9.3-14.8-16.6-24.9-21.2
					C115.3,45,113.1,48.7,115.6,49.9L115.6,49.9z"/>
			</g>
		</g>
		<g>
			<g>
				<path class="st1" d="M95.1,32.5c-6.8-3.2-14.8-5.6-21.3-0.7C67,36.7,63.6,46.5,59.9,53.6c-1.2,2.4,2.4,4.6,3.7,2.2
					c2.7-5.3,5.3-10.9,8.5-15.8c5.4-8.2,13.1-7.6,21-3.9C95.5,37.4,97.6,33.6,95.1,32.5L95.1,32.5z"/>
			</g>
		</g>
		<g>
			<g>
				<path class="st1" d="M79.2,49.4c-5.1,3.2-9,7.6-12.6,12.4c-4.6,6.1-10.4,16.1-19.1,15.6c-2.7-0.2-2.7,4,0,4.2
					c15.6,1.1,22.6-21.2,33.9-28.4C83.6,51.6,81.4,47.9,79.2,49.4L79.2,49.4z"/>
			</g>
		</g>
	</g>
	<g>
		<g>
			<path class="st1" d="M115.1,61.1c3.9,10.2,9.5,19.3,16.9,27.3c1.8,2,4.9-1.1,3.1-3.1c-6.9-7.5-12.2-16-16-25.5
				C118.2,57.6,114.2,58.5,115.1,61.1L115.1,61.1z"/>
		</g>
	</g>
	<g>
		<g>
			<path class="st1" d="M141.3,50.3c6.2,8.2,10.5,17.1,15.8,25.9c3.4,5.8,8.2,9.8,14.9,10.2c2.7,0.2,2.7-4,0-4.2
				c-9.7-0.5-12.9-11.5-16.9-18.6c-3.2-5.8-6.9-11.1-10.9-16.2C142.6,45.2,139.5,48.2,141.3,50.3L141.3,50.3z"/>
		</g>
	</g>
</g>
</svg>
