<?xml version="1.0" encoding="utf-8"?>
<!-- Generator: Adobe Illustrator 19.2.1, SVG Export Plug-In . SVG Version: 6.00 Build 0)  -->
<svg version="1.1" id="Layer_1" xmlns="http://www.w3.org/2000/svg" xmlns:xlink="http://www.w3.org/1999/xlink" x="0px" y="0px"
	 viewBox="0 0 256 2961.3" style="enable-background:new 0 0 256 2961.3;" xml:space="preserve">
<style type="text/css">
	.st0{fill:#F6921E;}
	.st1{fill:#231F20;}
</style>
<path class="st0" d="M220,92L220,92c0-50.8-41.2-92-92-92S36,41.2,36,92l0,0c0,0-7,2744.4-36,2869.3c22.6,0,73.2,0,120.2,0
	c5.1,0,10.3,0,15.6,0c47,0,97.6,0,120.2,0C227,2836.4,220,92,220,92z"/>
<circle class="st1" cx="65.5" cy="69.1" r="5.6"/>
<circle class="st1" cx="114.5" cy="69.1" r="5.6"/>
<g>
	<g>
		<g>
			<path class="st1" d="M98.5,141.3c0.9,0,0.9-1.5,0-1.5S97.6,141.3,98.5,141.3L98.5,141.3z"/>
		</g>
	</g>
	<g>
		<g>
			<path class="st1" d="M97.5,177.8c0.9,0,0.9-1.5,0-1.5C96.5,176.3,96.5,177.8,97.5,177.8L97.5,177.8z"/>
		</g>
	</g>
	<g>
		<g>
			<path class="st1" d="M67.7,171c0.9,0,0.9-1.5,0-1.5C66.8,169.5,66.8,171,67.7,171L67.7,171z"/>
		</g>
	</g>
	<g>
		<g>
			<path class="st1" d="M67.7,127.2c0.9,0,0.9-1.5,0-1.5C66.8,125.7,66.8,127.2,67.7,127.2L67.7,127.2z"/>
		</g>
	</g>
	<g>
		<g>
			<path class="st1" d="M99.1,110.5c0.9,0,0.9-1.5,0-1.5C98.1,109,98.1,110.5,99.1,110.5L99.1,110.5z"/>
		</g>
	</g>
	<g>
		<g>
			<path class="st1" d="M141.8,126.6c0.9,0,0.9-1.5,0-1.5C140.9,125.2,140.9,126.6,141.8,126.6L141.8,126.6z"/>
		</g>
	</g>
	<g>
		<g>
			<path class="st1" d="M150.2,162.1c0.9,0,0.9-1.5,0-1.5C149.2,160.7,149.2,162.1,150.2,162.1L150.2,162.1z"/>
		</g>
	</g>
	<g>
		<g>
			<path class="st1" d="M137.1,168.9c0.9,0,0.9-1.5,0-1.5C136.2,167.4,136.2,168.9,137.1,168.9L137.1,168.9z"/>
		</g>
	</g>
	<g>
		<g>
			<path class="st1" d="M122.5,163.2c0.9,0,0.9-1.5,0-1.5S121.6,163.2,122.5,163.2L122.5,163.2z"/>
		</g>
	</g>
	<g>
		<g>
			<path class="st1" d="M127.8,148c0.9,0,0.9-1.5,0-1.5C126.8,146.6,126.8,148,127.8,148L127.8,148z"/>
		</g>
	</g>
	<g>
		<g>
			<path class="st1" d="M87.1,154.8c0.9,0,0.9-1.5,0-1.5C86.1,153.3,86.1,154.8,87.1,154.8L87.1,154.8z"/>
		</g>
	</g>
	<g>
		<g>
			<path class="st1" d="M54.7,141.8c0.9,0,0.9-1.5,0-1.5S53.7,141.8,54.7,141.8L54.7,141.8z"/>
		</g>
	</g>
	<g>
		<g>
			<path class="st1" d="M62,159.5c0.9,0,0.9-1.5,0-1.5S61.1,159.5,62,159.5L62,159.5z"/>
		</g>
	</g>
	<g>
		<g>
			<path class="st1" d="M47.4,164.2c0.9,0,0.9-1.5,0-1.5C46.4,162.7,46.4,164.2,47.4,164.2L47.4,164.2z"/>
		</g>
	</g>
	<g>
		<g>
			<path class="st1" d="M44.3,121.9c0.9,0,0.9-1.5,0-1.5C43.3,120.5,43.3,121.9,44.3,121.9L44.3,121.9z"/>
		</g>
	</g>
	<g>
		<g>
			<path class="st1" d="M56.8,103.2c0.9,0,0.9-1.5,0-1.5C55.8,101.7,55.8,103.2,56.8,103.2L56.8,103.2z"/>
		</g>
	</g>
	<g>
		<g>
			<path class="st1" d="M91.2,102.1c0.9,0,0.9-1.5,0-1.5C90.3,100.6,90.3,102.1,91.2,102.1L91.2,102.1z"/>
		</g>
	</g>
	<g>
		<g>
			<path class="st1" d="M127.8,106.8c0.9,0,0.9-1.5,0-1.5C126.8,105.3,126.8,106.8,127.8,106.8L127.8,106.8z"/>
		</g>
	</g>
	<g>
		<g>
			<path class="st1" d="M114.2,144.4c0.9,0,0.9-1.5,0-1.5C113.2,142.9,113.2,144.4,114.2,144.4L114.2,144.4z"/>
		</g>
	</g>
	<g>
		<g>
			<path class="st1" d="M111.6,126.6c0.9,0,0.9-1.5,0-1.5C110.6,125.2,110.6,126.6,111.6,126.6L111.6,126.6z"/>
		</g>
	</g>
	<g>
		<g>
			<path class="st1" d="M143.9,143.3c0.9,0,0.9-1.5,0-1.5C143,141.9,143,143.3,143.9,143.3L143.9,143.3z"/>
		</g>
	</g>
	<g>
		<g>
			<path class="st1" d="M163.8,132.9c0.9,0,0.9-1.5,0-1.5C162.8,131.4,162.8,132.9,163.8,132.9L163.8,132.9z"/>
		</g>
	</g>
	<g>
		<g>
			<path class="st1" d="M143.9,115.2c0.9,0,0.9-1.5,0-1.5S143,115.2,143.9,115.2L143.9,115.2z"/>
		</g>
	</g>
	<g>
		<g>
			<path class="st1" d="M195.1,152.2c0.9,0,0.9-1.5,0-1.5C194.1,150.7,194.1,152.2,195.1,152.2L195.1,152.2z"/>
		</g>
	</g>
	<g>
		<g>
			<path class="st1" d="M187.2,168.9c0.9,0,0.9-1.5,0-1.5S186.3,168.9,187.2,168.9L187.2,168.9z"/>
		</g>
	</g>
	<g>
		<g>
			<path class="st1" d="M143.9,183.5c0.9,0,0.9-1.5,0-1.5S143,183.5,143.9,183.5L143.9,183.5z"/>
		</g>
	</g>
	<g>
		<g>
			<path class="st1" d="M124.6,208c0.9,0,0.9-1.5,0-1.5C123.7,206.6,123.7,208,124.6,208L124.6,208z"/>
		</g>
	</g>
	<g>
		<g>
			<path class="st1" d="M121.5,218c0.9,0,0.9-1.5,0-1.5C120.5,216.5,120.5,218,121.5,218L121.5,218z"/>
		</g>
	</g>
	<g>
		<g>
			<path class="st1" d="M75.6,203.3c0.9,0,0.9-1.5,0-1.5C74.6,201.9,74.6,203.3,75.6,203.3L75.6,203.3z"/>
		</g>
	</g>
	<g>
		<g>
			<path class="st1" d="M58.4,188.2c0.9,0,0.9-1.5,0-1.5C57.4,186.7,57.4,188.2,58.4,188.2L58.4,188.2z"/>
		</g>
	</g>
	<g>
		<g>
			<path class="st1" d="M43.7,190.3c0.9,0,0.9-1.5,0-1.5S42.8,190.3,43.7,190.3L43.7,190.3z"/>
		</g>
	</g>
	<g>
		<g>
			<path class="st1" d="M41.1,175.7c0.9,0,0.9-1.5,0-1.5C40.2,174.2,40.2,175.7,41.1,175.7L41.1,175.7z"/>
		</g>
	</g>
	<g>
		<g>
			<path class="st1" d="M59.9,180.9c0.9,0,0.9-1.5,0-1.5S59,180.9,59.9,180.9L59.9,180.9z"/>
		</g>
	</g>
	<g>
		<g>
			<path class="st1" d="M100.1,196c0.9,0,0.9-1.5,0-1.5C99.1,194.6,99.1,196,100.1,196L100.1,196z"/>
		</g>
	</g>
	<g>
		<g>
			<path class="st1" d="M119.9,180.9c0.9,0,0.9-1.5,0-1.5S119,180.9,119.9,180.9L119.9,180.9z"/>
		</g>
	</g>
	<g>
		<g>
			<path class="st1" d="M157,191.3c0.9,0,0.9-1.5,0-1.5C156,189.9,156,191.3,157,191.3L157,191.3z"/>
		</g>
	</g>
	<g>
		<g>
			<path class="st1" d="M165.3,159c0.9,0,0.9-1.5,0-1.5C164.4,157.5,164.4,159,165.3,159L165.3,159z"/>
		</g>
	</g>
	<g>
		<g>
			<path class="st1" d="M177.3,144.9c0.9,0,0.9-1.5,0-1.5C176.4,143.4,176.4,144.9,177.3,144.9L177.3,144.9z"/>
		</g>
	</g>
	<g>
		<g>
			<path class="st1" d="M178.4,173.1c0.9,0,0.9-1.5,0-1.5C177.4,171.6,177.4,173.1,178.4,173.1L178.4,173.1z"/>
		</g>
	</g>
	<g>
		<g>
			<path class="st1" d="M164.8,194.5c0.9,0,0.9-1.5,0-1.5C163.9,193,163.9,194.5,164.8,194.5L164.8,194.5z"/>
		</g>
	</g>
	<g>
		<g>
			<path class="st1" d="M114.7,168.4c0.9,0,0.9-1.5,0-1.5C113.8,166.9,113.8,168.4,114.7,168.4L114.7,168.4z"/>
		</g>
	</g>
	<g>
		<g>
			<path class="st1" d="M103.7,155.9c0.9,0,0.9-1.5,0-1.5C102.8,154.4,102.8,155.9,103.7,155.9L103.7,155.9z"/>
		</g>
	</g>
	<g>
		<g>
			<path class="st1" d="M83.9,172c0.9,0,0.9-1.5,0-1.5C83,170.6,83,172,83.9,172L83.9,172z"/>
		</g>
	</g>
	<g>
		<g>
			<path class="st1" d="M82.9,188.2c0.9,0,0.9-1.5,0-1.5C81.9,186.7,81.9,188.2,82.9,188.2L82.9,188.2z"/>
		</g>
	</g>
	<g>
		<g>
			<path class="st1" d="M69.8,182.5c0.9,0,0.9-1.5,0-1.5S68.9,182.5,69.8,182.5L69.8,182.5z"/>
		</g>
	</g>
	<g>
		<g>
			<path class="st1" d="M51.6,174.1c0.9,0,0.9-1.5,0-1.5C50.6,172.7,50.6,174.1,51.6,174.1L51.6,174.1z"/>
		</g>
	</g>
	<g>
		<g>
			<path class="st1" d="M43.2,154.3c0.9,0,0.9-1.5,0-1.5S42.3,154.3,43.2,154.3L43.2,154.3z"/>
		</g>
	</g>
	<g>
		<g>
			<path class="st1" d="M44.3,139.7c0.9,0,0.9-1.5,0-1.5C43.3,138.2,43.3,139.7,44.3,139.7L44.3,139.7z"/>
		</g>
	</g>
	<g>
		<g>
			<path class="st1" d="M54.2,126.1c0.9,0,0.9-1.5,0-1.5C53.2,124.6,53.2,126.1,54.2,126.1L54.2,126.1z"/>
		</g>
	</g>
	<g>
		<g>
			<path class="st1" d="M71.9,145.9c0.9,0,0.9-1.5,0-1.5C71,144.5,71,145.9,71.9,145.9L71.9,145.9z"/>
		</g>
	</g>
	<g>
		<g>
			<path class="st1" d="M81.3,139.7c0.9,0,0.9-1.5,0-1.5S80.4,139.7,81.3,139.7L81.3,139.7z"/>
		</g>
	</g>
	<g>
		<g>
			<path class="st1" d="M79.7,130.3c0.9,0,0.9-1.5,0-1.5C78.8,128.8,78.8,130.3,79.7,130.3L79.7,130.3z"/>
		</g>
	</g>
	<g>
		<g>
			<path class="st1" d="M105.3,130.8c0.9,0,0.9-1.5,0-1.5S104.4,130.8,105.3,130.8L105.3,130.8z"/>
		</g>
	</g>
	<g>
		<g>
			<path class="st1" d="M91.2,121.4c0.9,0,0.9-1.5,0-1.5C90.3,120,90.3,121.4,91.2,121.4L91.2,121.4z"/>
		</g>
	</g>
	<g>
		<g>
			<path class="st1" d="M81.3,111c0.9,0,0.9-1.5,0-1.5S80.4,111,81.3,111L81.3,111z"/>
		</g>
	</g>
	<g>
		<g>
			<path class="st1" d="M71.4,121.4c0.9,0,0.9-1.5,0-1.5C70.4,120,70.4,121.4,71.4,121.4L71.4,121.4z"/>
		</g>
	</g>
	<g>
		<g>
			<path class="st1" d="M63,115.7c0.9,0,0.9-1.5,0-1.5S62.1,115.7,63,115.7L63,115.7z"/>
		</g>
	</g>
	<g>
		<g>
			<path class="st1" d="M70.4,96.9c0.9,0,0.9-1.5,0-1.5C69.4,95.4,69.4,96.9,70.4,96.9L70.4,96.9z"/>
		</g>
	</g>
	<g>
		<g>
			<path class="st1" d="M114.2,94.8c0.9,0,0.9-1.5,0-1.5C113.2,93.3,113.2,94.8,114.2,94.8L114.2,94.8z"/>
		</g>
	</g>
	<g>
		<g>
			<path class="st1" d="M109.5,114.1c0.9,0,0.9-1.5,0-1.5C108.5,112.6,108.5,114.1,109.5,114.1L109.5,114.1z"/>
		</g>
	</g>
	<g>
		<g>
			<path class="st1" d="M129.3,123c0.9,0,0.9-1.5,0-1.5C128.4,121.5,128.4,123,129.3,123L129.3,123z"/>
		</g>
	</g>
	<g>
		<g>
			<path class="st1" d="M126.2,132.9c0.9,0,0.9-1.5,0-1.5C125.2,131.4,125.2,132.9,126.2,132.9L126.2,132.9z"/>
		</g>
	</g>
	<g>
		<g>
			<path class="st1" d="M136.6,136c0.9,0,0.9-1.5,0-1.5C135.7,134.6,135.7,136,136.6,136L136.6,136z"/>
		</g>
	</g>
	<g>
		<g>
			<path class="st1" d="M158.5,127.2c0.9,0,0.9-1.5,0-1.5S157.6,127.2,158.5,127.2L158.5,127.2z"/>
		</g>
	</g>
	<g>
		<g>
			<path class="st1" d="M151.2,139.2c0.9,0,0.9-1.5,0-1.5S150.3,139.2,151.2,139.2L151.2,139.2z"/>
		</g>
	</g>
	<g>
		<g>
			<path class="st1" d="M137.1,157.4c0.9,0,0.9-1.5,0-1.5C136.2,156,136.2,157.4,137.1,157.4L137.1,157.4z"/>
		</g>
	</g>
	<g>
		<g>
			<path class="st1" d="M159.1,146.5c0.9,0,0.9-1.5,0-1.5C158.1,145,158.1,146.5,159.1,146.5L159.1,146.5z"/>
		</g>
	</g>
	<g>
		<g>
			<path class="st1" d="M161.7,180.9c0.9,0,0.9-1.5,0-1.5C160.7,179.4,160.7,180.9,161.7,180.9L161.7,180.9z"/>
		</g>
	</g>
	<g>
		<g>
			<path class="st1" d="M178.4,184.6c0.9,0,0.9-1.5,0-1.5C177.4,183.1,177.4,184.6,178.4,184.6L178.4,184.6z"/>
		</g>
	</g>
	<g>
		<g>
			<path class="st1" d="M157,171.5c0.9,0,0.9-1.5,0-1.5C156,170,156,171.5,157,171.5L157,171.5z"/>
		</g>
	</g>
	<g>
		<g>
			<path class="st1" d="M137.7,192.4c0.9,0,0.9-1.5,0-1.5C136.7,190.9,136.7,192.4,137.7,192.4L137.7,192.4z"/>
		</g>
	</g>
	<g>
		<g>
			<path class="st1" d="M125.1,191.3c0.9,0,0.9-1.5,0-1.5C124.2,189.9,124.2,191.3,125.1,191.3L125.1,191.3z"/>
		</g>
	</g>
	<g>
		<g>
			<path class="st1" d="M122.5,197.6c0.9,0,0.9-1.5,0-1.5S121.6,197.6,122.5,197.6L122.5,197.6z"/>
		</g>
	</g>
	<g>
		<g>
			<path class="st1" d="M107.9,178.8c0.9,0,0.9-1.5,0-1.5C107,177.4,107,178.8,107.9,178.8L107.9,178.8z"/>
		</g>
	</g>
	<g>
		<g>
			<path class="st1" d="M100.6,165.3c0.9,0,0.9-1.5,0-1.5S99.7,165.3,100.6,165.3L100.6,165.3z"/>
		</g>
	</g>
	<g>
		<g>
			<path class="st1" d="M93.3,164.7c0.9,0,0.9-1.5,0-1.5C92.4,163.3,92.4,164.7,93.3,164.7L93.3,164.7z"/>
		</g>
	</g>
	<g>
		<g>
			<path class="st1" d="M76.1,162.6c0.9,0,0.9-1.5,0-1.5C75.1,161.2,75.1,162.6,76.1,162.6L76.1,162.6z"/>
		</g>
	</g>
	<g>
		<g>
			<path class="st1" d="M73,155.3c0.9,0,0.9-1.5,0-1.5C72,153.9,72,155.3,73,155.3L73,155.3z"/>
		</g>
	</g>
	<g>
		<g>
			<path class="st1" d="M90.7,210.7c0.9,0,0.9-1.5,0-1.5C89.8,209.2,89.8,210.7,90.7,210.7L90.7,210.7z"/>
		</g>
	</g>
	<g>
		<g>
			<path class="st1" d="M140.8,208c0.9,0,0.9-1.5,0-1.5C139.9,206.6,139.9,208,140.8,208L140.8,208z"/>
		</g>
	</g>
	<g>
		<g>
			<path class="st1" d="M213.3,173.1c0.9,0,0.9-1.5,0-1.5C212.4,171.6,212.4,173.1,213.3,173.1L213.3,173.1z"/>
		</g>
	</g>
	<g>
		<g>
			<path class="st1" d="M198.7,168.4c0.9,0,0.9-1.5,0-1.5S197.8,168.4,198.7,168.4L198.7,168.4z"/>
		</g>
	</g>
	<g>
		<g>
			<path class="st1" d="M181.5,160.6c0.9,0,0.9-1.5,0-1.5S180.6,160.6,181.5,160.6L181.5,160.6z"/>
		</g>
	</g>
	<g>
		<g>
			<path class="st1" d="M176.3,152.7c0.9,0,0.9-1.5,0-1.5C175.3,151.3,175.3,152.7,176.3,152.7L176.3,152.7z"/>
		</g>
	</g>
	<g>
		<g>
			<path class="st1" d="M171.6,175.7c0.9,0,0.9-1.5,0-1.5C170.6,174.2,170.6,175.7,171.6,175.7L171.6,175.7z"/>
		</g>
	</g>
	<g>
		<g>
			<path class="st1" d="M208.1,196.6c0.9,0,0.9-1.5,0-1.5C207.2,195.1,207.2,196.6,208.1,196.6L208.1,196.6z"/>
		</g>
	</g>
	<g>
		<g>
			<path class="st1" d="M206.5,139.7c0.9,0,0.9-1.5,0-1.5S205.6,139.7,206.5,139.7L206.5,139.7z"/>
		</g>
	</g>
	<g>
		<g>
			<path class="st1" d="M190.4,129.2c0.9,0,0.9-1.5,0-1.5C189.4,127.8,189.4,129.2,190.4,129.2L190.4,129.2z"/>
		</g>
	</g>
	<g>
		<g>
			<path class="st1" d="M191.4,138.1c0.9,0,0.9-1.5,0-1.5S190.5,138.1,191.4,138.1L191.4,138.1z"/>
		</g>
	</g>
	<g>
		<g>
			<path class="st1" d="M174.2,126.6c0.9,0,0.9-1.5,0-1.5C173.2,125.2,173.2,126.6,174.2,126.6L174.2,126.6z"/>
		</g>
	</g>
	<g>
		<g>
			<path class="st1" d="M164.8,113.1c0.9,0,0.9-1.5,0-1.5C163.9,111.6,163.9,113.1,164.8,113.1L164.8,113.1z"/>
		</g>
	</g>
	<g>
		<g>
			<path class="st1" d="M144.5,97.9c0.9,0,0.9-1.5,0-1.5C143.5,96.5,143.5,97.9,144.5,97.9L144.5,97.9z"/>
		</g>
	</g>
	<g>
		<g>
			<path class="st1" d="M189.9,105.8c0.9,0,0.9-1.5,0-1.5C188.9,104.3,188.9,105.8,189.9,105.8L189.9,105.8z"/>
		</g>
	</g>
	<g>
		<g>
			<path class="st1" d="M207.1,116.7c0.9,0,0.9-1.5,0-1.5C206.1,115.3,206.1,116.7,207.1,116.7L207.1,116.7z"/>
		</g>
	</g>
	<g>
		<g>
			<path class="st1" d="M216.5,148.6c0.9,0,0.9-1.5,0-1.5C215.5,147.1,215.5,148.6,216.5,148.6L216.5,148.6z"/>
		</g>
	</g>
	<g>
		<g>
			<path class="st1" d="M214.9,158c0.9,0,0.9-1.5,0-1.5S213.9,158,214.9,158L214.9,158z"/>
		</g>
	</g>
	<g>
		<g>
			<path class="st1" d="M206,161.1c0.9,0,0.9-1.5,0-1.5S205.1,161.1,206,161.1L206,161.1z"/>
		</g>
	</g>
	<g>
		<g>
			<path class="st1" d="M197.7,124c0.9,0,0.9-1.5,0-1.5C196.7,122.6,196.7,124,197.7,124L197.7,124z"/>
		</g>
	</g>
	<g>
		<g>
			<path class="st1" d="M188.3,119.3c0.9,0,0.9-1.5,0-1.5C187.3,117.9,187.3,119.3,188.3,119.3L188.3,119.3z"/>
		</g>
	</g>
	<g>
		<g>
			<path class="st1" d="M211.6,139.2c0.9,0,0.9-1.5,0-1.5C210.6,137.8,210.6,139.2,211.6,139.2L211.6,139.2z"/>
		</g>
	</g>
	<g>
		<g>
			<path class="st1" d="M205.3,99.9c0.9,0,0.9-1.5,0-1.5C204.4,98.5,204.4,99.9,205.3,99.9L205.3,99.9z"/>
		</g>
	</g>
	<g>
		<g>
			<path class="st1" d="M164.5,100.7c0.9,0,0.9-1.5,0-1.5S163.6,100.7,164.5,100.7L164.5,100.7z"/>
		</g>
	</g>
	<g>
		<g>
			<path class="st1" d="M177.5,108.4c0.9,0,0.9-1.5,0-1.5C176.6,107,176.6,108.4,177.5,108.4L177.5,108.4z"/>
		</g>
	</g>
	<g>
		<g>
			<path class="st1" d="M184.1,96.9c0.9,0,0.9-1.5,0-1.5C183.1,95.5,183.1,96.9,184.1,96.9L184.1,96.9z"/>
		</g>
	</g>
	<g>
		<g>
			<path class="st1" d="M47.2,101.2c0.9,0,0.9-1.5,0-1.5C46.2,99.7,46.2,101.2,47.2,101.2L47.2,101.2z"/>
		</g>
	</g>
	<g>
		<g>
			<path class="st1" d="M62.4,141.2c0.9,0,0.9-1.5,0-1.5C61.5,139.8,61.5,141.2,62.4,141.2L62.4,141.2z"/>
		</g>
	</g>
	<g>
		<g>
			<path class="st1" d="M36.1,203.3c0.9,0,0.9-1.5,0-1.5C35.2,201.8,35.2,203.3,36.1,203.3L36.1,203.3z"/>
		</g>
	</g>
	<g>
		<g>
			<path class="st1" d="M54.9,201.3c0.9,0,0.9-1.5,0-1.5S54,201.3,54.9,201.3L54.9,201.3z"/>
		</g>
	</g>
	<g>
		<g>
			<path class="st1" d="M63.7,193.3c0.9,0,0.9-1.5,0-1.5C62.7,191.8,62.7,193.3,63.7,193.3L63.7,193.3z"/>
		</g>
	</g>
	<g>
		<g>
			<path class="st1" d="M87.4,196.5c0.9,0,0.9-1.5,0-1.5C86.5,195.1,86.5,196.5,87.4,196.5L87.4,196.5z"/>
		</g>
	</g>
	<g>
		<g>
			<path class="st1" d="M91.7,183.5c0.9,0,0.9-1.5,0-1.5C90.8,182.1,90.8,183.5,91.7,183.5L91.7,183.5z"/>
		</g>
	</g>
	<g>
		<g>
			<path class="st1" d="M102.7,209.3c0.9,0,0.9-1.5,0-1.5C101.8,207.8,101.8,209.3,102.7,209.3L102.7,209.3z"/>
		</g>
	</g>
	<g>
		<g>
			<path class="st1" d="M108.2,190.5c0.9,0,0.9-1.5,0-1.5C107.3,189.1,107.3,190.5,108.2,190.5L108.2,190.5z"/>
		</g>
	</g>
	<g>
		<g>
			<path class="st1" d="M131.7,180.8c0.9,0,0.9-1.5,0-1.5S130.8,180.8,131.7,180.8L131.7,180.8z"/>
		</g>
	</g>
	<g>
		<g>
			<path class="st1" d="M153,198.3c0.9,0,0.9-1.5,0-1.5S152.1,198.3,153,198.3L153,198.3z"/>
		</g>
	</g>
	<g>
		<g>
			<path class="st1" d="M181.6,193.3c0.9,0,0.9-1.5,0-1.5C180.6,191.8,180.6,193.3,181.6,193.3L181.6,193.3z"/>
		</g>
	</g>
	<g>
		<g>
			<path class="st1" d="M201.1,179.5c0.9,0,0.9-1.5,0-1.5C200.1,178,200.1,179.5,201.1,179.5L201.1,179.5z"/>
		</g>
	</g>
	<g>
		<g>
			<path class="st1" d="M193.8,194.5c0.9,0,0.9-1.5,0-1.5C192.9,193.1,192.9,194.5,193.8,194.5L193.8,194.5z"/>
		</g>
	</g>
	<g>
		<g>
			<path class="st1" d="M167,210.1c0.9,0,0.9-1.5,0-1.5S166.1,210.1,167,210.1L167,210.1z"/>
		</g>
	</g>
	<g>
		<g>
			<path class="st1" d="M44.6,132.2c0.9,0,0.9-1.5,0-1.5C43.7,130.7,43.7,132.2,44.6,132.2L44.6,132.2z"/>
		</g>
	</g>
	<g>
		<g>
			<path class="st1" d="M51.4,115.4c0.9,0,0.9-1.5,0-1.5C50.5,114,50.5,115.4,51.4,115.4L51.4,115.4z"/>
		</g>
	</g>
	<g>
		<g>
			<path class="st1" d="M42.4,112.2c0.9,0,0.9-1.5,0-1.5C41.4,110.7,41.4,112.2,42.4,112.2L42.4,112.2z"/>
		</g>
	</g>
	<g>
		<g>
			<path class="st1" d="M37.9,123.5c0.9,0,0.9-1.5,0-1.5C36.9,122,36.9,123.5,37.9,123.5L37.9,123.5z"/>
		</g>
	</g>
	<g>
		<g>
			<path class="st1" d="M35.6,142.7c0.9,0,0.9-1.5,0-1.5C34.7,141.3,34.7,142.7,35.6,142.7L35.6,142.7z"/>
		</g>
	</g>
	<g>
		<g>
			<path class="st1" d="M35.1,166.8c0.9,0,0.9-1.5,0-1.5C34.2,165.3,34.2,166.8,35.1,166.8L35.1,166.8z"/>
		</g>
	</g>
	<g>
		<g>
			<path class="st1" d="M45.7,196.8c0.9,0,0.9-1.5,0-1.5C44.7,195.3,44.7,196.8,45.7,196.8L45.7,196.8z"/>
		</g>
	</g>
	<g>
		<g>
			<path class="st1" d="M50.9,183.8c0.9,0,0.9-1.5,0-1.5S50,183.8,50.9,183.8L50.9,183.8z"/>
		</g>
	</g>
	<g>
		<g>
			<path class="st1" d="M35.6,186c0.9,0,0.9-1.5,0-1.5C34.7,184.6,34.7,186,35.6,186L35.6,186z"/>
		</g>
	</g>
	<g>
		<g>
			<path class="st1" d="M208.8,129.2c0.9,0,0.9-1.5,0-1.5C207.9,127.7,207.9,129.2,208.8,129.2L208.8,129.2z"/>
		</g>
	</g>
	<g>
		<g>
			<path class="st1" d="M213.8,118.7c0.9,0,0.9-1.5,0-1.5C212.9,117.2,212.9,118.7,213.8,118.7L213.8,118.7z"/>
		</g>
	</g>
	<g>
		<g>
			<path class="st1" d="M213.8,105.7c0.9,0,0.9-1.5,0-1.5C212.9,104.2,212.9,105.7,213.8,105.7L213.8,105.7z"/>
		</g>
	</g>
	<g>
		<g>
			<path class="st1" d="M199.8,111.7c0.9,0,0.9-1.5,0-1.5C198.9,110.2,198.9,111.7,199.8,111.7L199.8,111.7z"/>
		</g>
	</g>
	<g>
		<g>
			<path class="st1" d="M180.1,118.5c0.9,0,0.9-1.5,0-1.5C179.1,117,179.1,118.5,180.1,118.5L180.1,118.5z"/>
		</g>
	</g>
	<g>
		<g>
			<path class="st1" d="M151,110.4c0.9,0,0.9-1.5,0-1.5C150.1,109,150.1,110.4,151,110.4L151,110.4z"/>
		</g>
	</g>
	<g>
		<g>
			<path class="st1" d="M122.2,115.7c0.9,0,0.9-1.5,0-1.5C121.3,114.2,121.3,115.7,122.2,115.7L122.2,115.7z"/>
		</g>
	</g>
	<g>
		<g>
			<path class="st1" d="M110.5,102.9c0.9,0,0.9-1.5,0-1.5C109.5,101.5,109.5,102.9,110.5,102.9L110.5,102.9z"/>
		</g>
	</g>
	<g>
		<g>
			<path class="st1" d="M215.1,185.8c0.9,0,0.9-1.5,0-1.5C214.1,184.3,214.1,185.8,215.1,185.8L215.1,185.8z"/>
		</g>
	</g>
	<g>
		<g>
			<path class="st1" d="M189.3,181.5c0.9,0,0.9-1.5,0-1.5C188.4,180,188.4,181.5,189.3,181.5L189.3,181.5z"/>
		</g>
	</g>
	<g>
		<g>
			<path class="st1" d="M222.3,198.3c0.9,0,0.9-1.5,0-1.5C221.4,196.8,221.4,198.3,222.3,198.3L222.3,198.3z"/>
		</g>
	</g>
	<g>
		<g>
			<path class="st1" d="M214.6,206.3c0.9,0,0.9-1.5,0-1.5C213.6,204.8,213.6,206.3,214.6,206.3L214.6,206.3z"/>
		</g>
	</g>
	<g>
		<g>
			<path class="st1" d="M194.6,202c0.9,0,0.9-1.5,0-1.5C193.6,200.6,193.6,202,194.6,202L194.6,202z"/>
		</g>
	</g>
	<g>
		<g>
			<path class="st1" d="M177.8,200.5c0.9,0,0.9-1.5,0-1.5C176.9,199.1,176.9,200.5,177.8,200.5L177.8,200.5z"/>
		</g>
	</g>
	<g>
		<g>
			<path class="st1" d="M169.3,200c0.9,0,0.9-1.5,0-1.5C168.3,198.6,168.3,200,169.3,200L169.3,200z"/>
		</g>
	</g>
	<g>
		<g>
			<path class="st1" d="M149.8,205.5c0.9,0,0.9-1.5,0-1.5C148.8,204.1,148.8,205.5,149.8,205.5L149.8,205.5z"/>
		</g>
	</g>
	<g>
		<g>
			<path class="st1" d="M117.7,202c0.9,0,0.9-1.5,0-1.5C116.8,200.6,116.8,202,117.7,202L117.7,202z"/>
		</g>
	</g>
	<g>
		<g>
			<path class="st1" d="M109.2,200.8c0.9,0,0.9-1.5,0-1.5C108.3,199.3,108.3,200.8,109.2,200.8L109.2,200.8z"/>
		</g>
	</g>
</g>
</svg>
