<?xml version="1.0" encoding="utf-8"?>
<!-- Generator: Adobe Illustrator 19.2.0, SVG Export Plug-In . SVG Version: 6.00 Build 0)  -->
<svg version="1.1" xmlns="http://www.w3.org/2000/svg" xmlns:xlink="http://www.w3.org/1999/xlink" x="0px" y="0px"
	 viewBox="0 0 841.9 595.3" style="enable-background:new 0 0 841.9 595.3;" xml:space="preserve">
<style type="text/css">
	.st0{fill:#808285;}
	.st1{fill:#D1D3D4;}
	.st2{fill:#F1F2F2;}
	.st3{fill:#A7A9AC;}
</style>
<g id="Layer_1">
	<rect y="121.4" class="st0" width="186.5" height="473.9"/>
	<rect x="186.5" y="193.3" class="st0" width="105.9" height="401.9"/>
	<rect x="292.4" y="65.1" class="st0" width="77.6" height="530.2"/>
	<rect x="370.1" y="142.3" class="st0" width="161.2" height="453"/>
	<rect x="531.2" y="254.8" class="st0" width="52.9" height="340.4"/>
	<rect x="584.2" y="58.6" class="st0" width="129.4" height="536.7"/>
	<rect x="713.6" y="105.1" class="st0" width="128.3" height="490.2"/>
	<rect x="10.1" y="135" class="st1" width="22" height="30"/>
	<rect x="10.1" y="135" class="st2" width="22" height="30"/>
	<rect x="10.1" y="178.3" class="st2" width="22" height="30"/>
	<rect x="10" y="220" class="st2" width="22" height="30"/>
	<rect x="10" y="263.3" class="st2" width="22" height="30"/>
	<rect x="48.1" y="136" class="st2" width="22" height="30"/>
	<rect x="48.1" y="179.3" class="st2" width="22" height="30"/>
	<rect x="48" y="221" class="st2" width="22" height="30"/>
	<rect x="48" y="264.3" class="st2" width="22" height="30"/>
	<rect x="85.1" y="137" class="st2" width="22" height="30"/>
	<rect x="85.1" y="180.3" class="st2" width="22" height="30"/>
	<rect x="85" y="222" class="st2" width="22" height="30"/>
	<rect x="85" y="265.3" class="st2" width="22" height="30"/>
	<rect x="121.1" y="138" class="st2" width="22" height="30"/>
	<rect x="121.1" y="181.3" class="st2" width="22" height="30"/>
	<rect x="121" y="223" class="st2" width="22" height="30"/>
	<rect x="121" y="266.3" class="st2" width="22" height="30"/>
	<rect x="155.1" y="138" class="st2" width="22" height="30"/>
	<rect x="155.1" y="181.3" class="st2" width="22" height="30"/>
	<rect x="155" y="223" class="st2" width="22" height="30"/>
	<rect x="155" y="266.3" class="st2" width="22" height="30"/>
	<rect x="303" y="75.1" class="st2" width="21.2" height="21.2"/>
	<rect x="336.2" y="75.1" class="st2" width="21.2" height="21.2"/>
	<rect x="304.1" y="110.8" class="st2" width="21.2" height="21.2"/>
	<rect x="304.1" y="142.5" class="st2" width="21.2" height="21.2"/>
	<rect x="337.3" y="142.5" class="st2" width="21.2" height="21.2"/>
	<rect x="304" y="200.8" class="st2" width="21.2" height="21.2"/>
	<rect x="337.2" y="200.8" class="st2" width="21.2" height="21.2"/>
</g>
<g id="Layer_2">
	<rect x="492.9" y="292.1" class="st1" width="186.5" height="303.1"/>
	<rect x="387.1" y="190.1" class="st1" width="105.9" height="405.2"/>
	<rect x="679.5" y="186.8" class="st1" width="162.4" height="408.5"/>
	<rect x="147.2" y="224.9" class="st1" width="240" height="370.4"/>
	<rect x="73.6" y="105.1" class="st1" width="86.5" height="488.6"/>
	<rect y="349.4" class="st1" width="73.6" height="244.3"/>
	<rect x="166.2" y="235.1" class="st3" width="41.6" height="21.2"/>
	<rect x="218.7" y="234.1" class="st3" width="41.6" height="21.2"/>
	<rect x="271.6" y="235.1" class="st3" width="41.6" height="21.2"/>
	<rect x="327" y="235.1" class="st3" width="41.6" height="21.2"/>
	<rect x="166.2" y="270.7" class="st3" width="41.6" height="21.2"/>
	<rect x="218.7" y="267.7" class="st3" width="41.6" height="21.2"/>
	<rect x="271.6" y="269.7" class="st3" width="41.6" height="21.2"/>
	<rect x="327.1" y="268.7" class="st3" width="41.6" height="21.2"/>
	<rect x="166.2" y="305.7" class="st3" width="41.6" height="21.2"/>
	<rect x="218.7" y="305.7" class="st3" width="41.6" height="21.2"/>
	<rect x="271.6" y="305.7" class="st3" width="41.6" height="21.2"/>
	<rect x="326" y="305.7" class="st3" width="41.6" height="21.2"/>
	<rect x="165.9" y="345.6" class="st3" width="41.6" height="21.2"/>
	<rect x="218.5" y="344.6" class="st3" width="41.6" height="21.2"/>
	<rect x="271.4" y="345.6" class="st3" width="41.6" height="21.2"/>
	<rect x="326.8" y="345.6" class="st3" width="41.6" height="21.2"/>
	<rect x="165.9" y="381.3" class="st3" width="41.6" height="21.2"/>
	<rect x="218.5" y="378.3" class="st3" width="41.6" height="21.2"/>
	<rect x="271.4" y="380.3" class="st3" width="41.6" height="21.2"/>
	<rect x="326.8" y="379.3" class="st3" width="41.6" height="21.2"/>
	<rect x="165.9" y="416.3" class="st3" width="41.6" height="21.2"/>
	<rect x="218.5" y="416.3" class="st3" width="41.6" height="21.2"/>
	<rect x="271.4" y="416.3" class="st3" width="41.6" height="21.2"/>
	<rect x="325.8" y="416.3" class="st3" width="41.6" height="21.2"/>
	<rect x="165.9" y="453.3" class="st3" width="41.6" height="21.2"/>
	<rect x="218.5" y="452.3" class="st3" width="41.6" height="21.2"/>
	<rect x="271.4" y="453.3" class="st3" width="41.6" height="21.2"/>
	<rect x="326.8" y="453.3" class="st3" width="41.6" height="21.2"/>
	<rect x="165.9" y="489" class="st3" width="41.6" height="21.2"/>
	<rect x="218.5" y="486" class="st3" width="41.6" height="21.2"/>
	<rect x="271.4" y="488" class="st3" width="41.6" height="21.2"/>
	<rect x="326.8" y="487" class="st3" width="41.6" height="21.2"/>
	<rect x="165.9" y="524" class="st3" width="41.6" height="21.2"/>
	<rect x="218.5" y="524" class="st3" width="41.6" height="21.2"/>
	<rect x="271.4" y="524" class="st3" width="41.6" height="21.2"/>
	<rect x="325.8" y="524" class="st3" width="41.6" height="21.2"/>
	<rect x="166.5" y="557.4" class="st3" width="41.6" height="21.2"/>
	<rect x="219" y="557.4" class="st3" width="41.6" height="21.2"/>
	<rect x="271.9" y="557.4" class="st3" width="41.6" height="21.2"/>
	<rect x="326.3" y="557.4" class="st3" width="41.6" height="21.2"/>
	<rect x="405.6" y="208.6" class="st3" width="24.7" height="50.7"/>
	<rect x="449.7" y="208.9" class="st3" width="24.7" height="50.7"/>
	<rect x="405.6" y="280.2" class="st3" width="24.7" height="50.7"/>
	<rect x="449.7" y="280.5" class="st3" width="24.7" height="50.7"/>
	<rect x="405.6" y="349.4" class="st3" width="24.7" height="50.7"/>
	<rect x="449.7" y="349.6" class="st3" width="24.7" height="50.7"/>
	<rect x="405.6" y="418.2" class="st3" width="24.7" height="50.7"/>
	<rect x="449.7" y="418.5" class="st3" width="24.7" height="50.7"/>
	<rect x="405.6" y="537.9" class="st3" width="24.7" height="50.7"/>
	<rect x="449.7" y="538.2" class="st3" width="24.7" height="50.7"/>
	<rect x="405.6" y="477.1" class="st3" width="24.7" height="50.7"/>
	<rect x="449.7" y="479.4" class="st3" width="24.7" height="50.7"/>
</g>
</svg>
